%TF.GenerationSoftware,KiCad,Pcbnew,9.0.2+1*%
%TF.CreationDate,2025-08-04T10:31:06+02:00*%
%TF.ProjectId,ts13_dev_kit,74733133-5f64-4657-965f-6b69742e6b69,rev?*%
%TF.SameCoordinates,Original*%
%TF.FileFunction,Copper,L2,Bot*%
%TF.FilePolarity,Positive*%
%FSLAX46Y46*%
G04 Gerber Fmt 4.6, Leading zero omitted, Abs format (unit mm)*
G04 Created by KiCad (PCBNEW 9.0.2+1) date 2025-08-04 10:31:06*
%MOMM*%
%LPD*%
G01*
G04 APERTURE LIST*
%TA.AperFunction,ComponentPad*%
%ADD10O,0.850000X2.250000*%
%TD*%
%TA.AperFunction,ComponentPad*%
%ADD11C,1.600000*%
%TD*%
%TA.AperFunction,SMDPad,CuDef*%
%ADD12C,1.500000*%
%TD*%
%TA.AperFunction,ViaPad*%
%ADD13C,0.800000*%
%TD*%
%TA.AperFunction,ViaPad*%
%ADD14C,1.000000*%
%TD*%
%TA.AperFunction,Conductor*%
%ADD15C,0.300000*%
%TD*%
%TA.AperFunction,Conductor*%
%ADD16C,0.500000*%
%TD*%
%TA.AperFunction,Conductor*%
%ADD17C,0.200000*%
%TD*%
G04 APERTURE END LIST*
D10*
%TO.P,J1,S1,SHIELD*%
%TO.N,GND*%
X125700000Y-94600000D03*
X134300000Y-94600000D03*
%TD*%
D11*
%TO.P,PAD3,1,1*%
%TO.N,Net-(IC1-GPO)*%
X124900000Y-61000000D03*
%TD*%
%TO.P,PAD4,1,1*%
%TO.N,Net-(IC1-CSN)*%
X135060000Y-61000000D03*
%TD*%
%TO.P,PAD6,1,1*%
%TO.N,Net-(IC1-SDO)*%
X129980000Y-61000000D03*
%TD*%
%TO.P,PAD2,1,1*%
%TO.N,GND*%
X137600000Y-61000000D03*
%TD*%
%TO.P,PAD1,1,1*%
%TO.N,T_VCC*%
X122360000Y-61000000D03*
%TD*%
%TO.P,PAD7,1,1*%
%TO.N,Net-(IC1-SDI)*%
X127440000Y-61000000D03*
%TD*%
%TO.P,PAD5,1,1*%
%TO.N,Net-(IC1-SCK)*%
X132520000Y-61000000D03*
%TD*%
D12*
%TO.P,TP7,1,1*%
%TO.N,/SWDIO*%
X125000000Y-74250000D03*
%TD*%
%TO.P,TP2,1,1*%
%TO.N,/NRST*%
X135000000Y-76750000D03*
%TD*%
%TO.P,TP5,1,1*%
%TO.N,/U2_RX*%
X135000000Y-71750000D03*
%TD*%
%TO.P,TP6,1,1*%
%TO.N,GND*%
X135000000Y-69250000D03*
%TD*%
%TO.P,TP10,1,1*%
%TO.N,Net-(IC2-PB2)*%
X125000000Y-66500000D03*
%TD*%
%TO.P,TP12,1,1*%
%TO.N,Net-(IC2-PB3)*%
X125000000Y-80000000D03*
%TD*%
%TO.P,TP8,1,1*%
%TO.N,/SWCLK*%
X125000000Y-76750000D03*
%TD*%
%TO.P,TP11,1,1*%
%TO.N,Net-(IC2-PB4)*%
X125000000Y-82500000D03*
%TD*%
%TO.P,TP9,1,1*%
%TO.N,GND*%
X125000000Y-71750000D03*
%TD*%
%TO.P,TP3,1,1*%
%TO.N,Net-(F1-Pad2)*%
X134500000Y-89500000D03*
%TD*%
%TO.P,TP4,1,1*%
%TO.N,/U2_TX*%
X135000000Y-74250000D03*
%TD*%
%TO.P,TP1,1,1*%
%TO.N,VCC*%
X135000000Y-80000000D03*
%TD*%
D13*
%TO.N,GND*%
X126411000Y-66200000D03*
X129250000Y-65970000D03*
X128000000Y-85000000D03*
X129000000Y-89750000D03*
X121000000Y-65000000D03*
X122750000Y-51000000D03*
X136250000Y-78500000D03*
X138000000Y-55750000D03*
X127250000Y-73500000D03*
X131920000Y-57120000D03*
X132410000Y-75910000D03*
X136800000Y-52600000D03*
X131750000Y-82000000D03*
X138510000Y-81370000D03*
X131000000Y-52750000D03*
X122400000Y-78000000D03*
X126300000Y-57550000D03*
X121000000Y-57500000D03*
X131000000Y-53920000D03*
X124854923Y-70422920D03*
X138900000Y-52300000D03*
X121340000Y-81410000D03*
X132400000Y-73730000D03*
X136600000Y-57800000D03*
X131120000Y-71710000D03*
X120920000Y-70750000D03*
X130000000Y-92000000D03*
X121000000Y-52750000D03*
X128000000Y-72000000D03*
X124910000Y-85150000D03*
X139000000Y-65000000D03*
X135030000Y-92570000D03*
X127500000Y-76500000D03*
X130100000Y-51300000D03*
X132610000Y-58480000D03*
X138750000Y-72500000D03*
X135600000Y-51600000D03*
X120920000Y-78500000D03*
X124940000Y-92850000D03*
X131810000Y-89830000D03*
X139000000Y-57500000D03*
X134990000Y-87240000D03*
X131750000Y-77250000D03*
X139000000Y-68140000D03*
D14*
%TO.N,VCC*%
X137020000Y-79770000D03*
D13*
X127600000Y-89900000D03*
D14*
X126000000Y-69100000D03*
D13*
X129750000Y-84950000D03*
D14*
X136618387Y-70227251D03*
D13*
%TO.N,/NRST*%
X132390000Y-74800000D03*
%TO.N,/USB_P*%
X128200000Y-82580000D03*
X128680000Y-75188280D03*
%TO.N,/USB_N*%
X127750000Y-74500000D03*
X128190000Y-81390000D03*
%TO.N,/SWCLK*%
X126300000Y-78700000D03*
%TO.N,/U2_TX*%
X132360000Y-71990000D03*
%TO.N,/SWDIO*%
X124420000Y-75450000D03*
%TO.N,/U2_RX*%
X134230000Y-70540000D03*
%TO.N,Net-(F1-Pad2)*%
X133520000Y-90110000D03*
%TO.N,Net-(IC2-PB3)*%
X125229975Y-78759975D03*
%TO.N,Net-(IC2-PB2)*%
X125730000Y-65380000D03*
%TO.N,Net-(IC2-PB4)*%
X126810000Y-80710000D03*
%TD*%
D15*
%TO.N,VCC*%
X126000000Y-69100000D02*
X129300000Y-69100000D01*
X129300000Y-69100000D02*
X130600000Y-67800000D01*
X136600000Y-68750000D02*
X136600000Y-70208864D01*
X130600000Y-67800000D02*
X135650000Y-67800000D01*
X135650000Y-67800000D02*
X136600000Y-68750000D01*
X136600000Y-70208864D02*
X136618387Y-70227251D01*
D16*
X137101000Y-70709864D02*
X136618387Y-70227251D01*
X137101000Y-79439000D02*
X137101000Y-70709864D01*
X137020000Y-79770000D02*
X137101000Y-79439000D01*
D15*
X136790000Y-80000000D02*
X137020000Y-79770000D01*
D17*
X129250000Y-88250000D02*
X127600000Y-89900000D01*
D15*
X135000000Y-80000000D02*
X136790000Y-80000000D01*
D17*
X129750000Y-86250000D02*
X129250000Y-86750000D01*
X129250000Y-86750000D02*
X129250000Y-88250000D01*
X129750000Y-84950000D02*
X129750000Y-86250000D01*
%TO.N,/NRST*%
X133050000Y-74800000D02*
X132390000Y-74800000D01*
X135000000Y-76750000D02*
X133050000Y-74800000D01*
%TO.N,/USB_P*%
X128950000Y-75458280D02*
X128950000Y-81830000D01*
X128950000Y-81830000D02*
X128200000Y-82580000D01*
X128680000Y-75188280D02*
X128950000Y-75458280D01*
%TO.N,/USB_N*%
X127750000Y-74500000D02*
X127750000Y-75350000D01*
X128420000Y-76020000D02*
X128420000Y-81160000D01*
X128420000Y-81160000D02*
X128190000Y-81390000D01*
X127750000Y-75350000D02*
X128420000Y-76020000D01*
%TO.N,/SWCLK*%
X125750000Y-78150000D02*
X125750000Y-77500000D01*
X126300000Y-78700000D02*
X125750000Y-78150000D01*
X125750000Y-77500000D02*
X125000000Y-76750000D01*
%TO.N,/U2_TX*%
X135000000Y-74250000D02*
X132740000Y-71990000D01*
X132740000Y-71990000D02*
X132360000Y-71990000D01*
%TO.N,/SWDIO*%
X124420000Y-74830000D02*
X125000000Y-74250000D01*
X124420000Y-75450000D02*
X124420000Y-74830000D01*
%TO.N,/U2_RX*%
X135000000Y-71750000D02*
X134230000Y-70980000D01*
X134230000Y-70980000D02*
X134230000Y-70540000D01*
%TO.N,Net-(F1-Pad2)*%
X133890000Y-90110000D02*
X134500000Y-89500000D01*
X133520000Y-90110000D02*
X133890000Y-90110000D01*
%TO.N,Net-(IC2-PB3)*%
X125229975Y-78759975D02*
X125000000Y-78989950D01*
X125000000Y-78989950D02*
X125000000Y-80000000D01*
%TO.N,Net-(IC2-PB2)*%
X125850000Y-65500000D02*
X125730000Y-65380000D01*
X125850000Y-65650000D02*
X125850000Y-65500000D01*
X125000000Y-66500000D02*
X125850000Y-65650000D01*
%TO.N,Net-(IC2-PB4)*%
X126490000Y-80710000D02*
X126210000Y-80990000D01*
X126210000Y-81290000D02*
X125000000Y-82500000D01*
X126210000Y-80990000D02*
X126210000Y-81290000D01*
X126810000Y-80710000D02*
X126490000Y-80710000D01*
%TD*%
%TA.AperFunction,Conductor*%
%TO.N,GND*%
G36*
X137504043Y-50500765D02*
G01*
X137752895Y-50517075D01*
X137768953Y-50519190D01*
X137976105Y-50560395D01*
X138009535Y-50567045D01*
X138025202Y-50571243D01*
X138194947Y-50628863D01*
X138257481Y-50650091D01*
X138272458Y-50656294D01*
X138481799Y-50759529D01*
X138492460Y-50764787D01*
X138506508Y-50772897D01*
X138710464Y-50909177D01*
X138723328Y-50919048D01*
X138907749Y-51080781D01*
X138919218Y-51092250D01*
X139080951Y-51276671D01*
X139090825Y-51289539D01*
X139227102Y-51493492D01*
X139235212Y-51507539D01*
X139343702Y-51727534D01*
X139349909Y-51742520D01*
X139428756Y-51974797D01*
X139432954Y-51990464D01*
X139480807Y-52231035D01*
X139482925Y-52247116D01*
X139499235Y-52495956D01*
X139499500Y-52504066D01*
X139499500Y-62342234D01*
X139479815Y-62409273D01*
X139427011Y-62455028D01*
X139357853Y-62464972D01*
X139328048Y-62456795D01*
X139161839Y-62387950D01*
X139161829Y-62387947D01*
X138968543Y-62349500D01*
X138968541Y-62349500D01*
X138771459Y-62349500D01*
X138771457Y-62349500D01*
X138578170Y-62387947D01*
X138578160Y-62387950D01*
X138396092Y-62463364D01*
X138396079Y-62463371D01*
X138232218Y-62572860D01*
X138232214Y-62572863D01*
X138092862Y-62712215D01*
X138058607Y-62763482D01*
X138037620Y-62794891D01*
X137984010Y-62839696D01*
X137934519Y-62850000D01*
X137265481Y-62850000D01*
X137198442Y-62830315D01*
X137162379Y-62794891D01*
X137107139Y-62712218D01*
X137107137Y-62712215D01*
X136967785Y-62572863D01*
X136967781Y-62572860D01*
X136803920Y-62463371D01*
X136803907Y-62463364D01*
X136621839Y-62387950D01*
X136621829Y-62387947D01*
X136428543Y-62349500D01*
X136428541Y-62349500D01*
X136231459Y-62349500D01*
X136231457Y-62349500D01*
X136038170Y-62387947D01*
X136038160Y-62387950D01*
X135856092Y-62463364D01*
X135856079Y-62463371D01*
X135692218Y-62572860D01*
X135692214Y-62572863D01*
X135552862Y-62712215D01*
X135518607Y-62763482D01*
X135497620Y-62794891D01*
X135444010Y-62839696D01*
X135394519Y-62850000D01*
X134725481Y-62850000D01*
X134658442Y-62830315D01*
X134622379Y-62794891D01*
X134567139Y-62712218D01*
X134567137Y-62712215D01*
X134427785Y-62572863D01*
X134427781Y-62572860D01*
X134263920Y-62463371D01*
X134263907Y-62463364D01*
X134081839Y-62387950D01*
X134081829Y-62387947D01*
X133888543Y-62349500D01*
X133888541Y-62349500D01*
X133691459Y-62349500D01*
X133691457Y-62349500D01*
X133498170Y-62387947D01*
X133498160Y-62387950D01*
X133316092Y-62463364D01*
X133316079Y-62463371D01*
X133152218Y-62572860D01*
X133152214Y-62572863D01*
X133012862Y-62712215D01*
X132978607Y-62763482D01*
X132957620Y-62794891D01*
X132904010Y-62839696D01*
X132854519Y-62850000D01*
X132185481Y-62850000D01*
X132118442Y-62830315D01*
X132082379Y-62794891D01*
X132027139Y-62712218D01*
X132027137Y-62712215D01*
X131887785Y-62572863D01*
X131887781Y-62572860D01*
X131723920Y-62463371D01*
X131723907Y-62463364D01*
X131541839Y-62387950D01*
X131541829Y-62387947D01*
X131348543Y-62349500D01*
X131348541Y-62349500D01*
X131151459Y-62349500D01*
X131151457Y-62349500D01*
X130958170Y-62387947D01*
X130958160Y-62387950D01*
X130776092Y-62463364D01*
X130776079Y-62463371D01*
X130612218Y-62572860D01*
X130612214Y-62572863D01*
X130472862Y-62712215D01*
X130438607Y-62763482D01*
X130417620Y-62794891D01*
X130364010Y-62839696D01*
X130314519Y-62850000D01*
X129645481Y-62850000D01*
X129578442Y-62830315D01*
X129542379Y-62794891D01*
X129487139Y-62712218D01*
X129487137Y-62712215D01*
X129347785Y-62572863D01*
X129347781Y-62572860D01*
X129183920Y-62463371D01*
X129183907Y-62463364D01*
X129001839Y-62387950D01*
X129001829Y-62387947D01*
X128808543Y-62349500D01*
X128808541Y-62349500D01*
X128611459Y-62349500D01*
X128611457Y-62349500D01*
X128418170Y-62387947D01*
X128418160Y-62387950D01*
X128236092Y-62463364D01*
X128236079Y-62463371D01*
X128072218Y-62572860D01*
X128072214Y-62572863D01*
X127932862Y-62712215D01*
X127898607Y-62763482D01*
X127877620Y-62794891D01*
X127824010Y-62839696D01*
X127774519Y-62850000D01*
X127105481Y-62850000D01*
X127038442Y-62830315D01*
X127002379Y-62794891D01*
X126947139Y-62712218D01*
X126947137Y-62712215D01*
X126807785Y-62572863D01*
X126807781Y-62572860D01*
X126643920Y-62463371D01*
X126643907Y-62463364D01*
X126461839Y-62387950D01*
X126461829Y-62387947D01*
X126268543Y-62349500D01*
X126268541Y-62349500D01*
X126071459Y-62349500D01*
X126071457Y-62349500D01*
X125878170Y-62387947D01*
X125878160Y-62387950D01*
X125696092Y-62463364D01*
X125696079Y-62463371D01*
X125532218Y-62572860D01*
X125532214Y-62572863D01*
X125392862Y-62712215D01*
X125358607Y-62763482D01*
X125337620Y-62794891D01*
X125284010Y-62839696D01*
X125234519Y-62850000D01*
X124565481Y-62850000D01*
X124498442Y-62830315D01*
X124462379Y-62794891D01*
X124407139Y-62712218D01*
X124407137Y-62712215D01*
X124267785Y-62572863D01*
X124267781Y-62572860D01*
X124103920Y-62463371D01*
X124103907Y-62463364D01*
X123921839Y-62387950D01*
X123921829Y-62387947D01*
X123728543Y-62349500D01*
X123728541Y-62349500D01*
X123531459Y-62349500D01*
X123531457Y-62349500D01*
X123338170Y-62387947D01*
X123338160Y-62387950D01*
X123156092Y-62463364D01*
X123156079Y-62463371D01*
X122992218Y-62572860D01*
X122992214Y-62572863D01*
X122852862Y-62712215D01*
X122818607Y-62763482D01*
X122797620Y-62794891D01*
X122744010Y-62839696D01*
X122694519Y-62850000D01*
X122025481Y-62850000D01*
X121958442Y-62830315D01*
X121922379Y-62794891D01*
X121867139Y-62712218D01*
X121867137Y-62712215D01*
X121727785Y-62572863D01*
X121727781Y-62572860D01*
X121563920Y-62463371D01*
X121563907Y-62463364D01*
X121381839Y-62387950D01*
X121381829Y-62387947D01*
X121188543Y-62349500D01*
X121188541Y-62349500D01*
X120991459Y-62349500D01*
X120991457Y-62349500D01*
X120798170Y-62387947D01*
X120798160Y-62387950D01*
X120671952Y-62440227D01*
X120602483Y-62447696D01*
X120540004Y-62416420D01*
X120504352Y-62356331D01*
X120500500Y-62325666D01*
X120500500Y-61098543D01*
X121359499Y-61098543D01*
X121397947Y-61291829D01*
X121397950Y-61291839D01*
X121473364Y-61473907D01*
X121473371Y-61473920D01*
X121582860Y-61637781D01*
X121582863Y-61637785D01*
X121722214Y-61777136D01*
X121722218Y-61777139D01*
X121886079Y-61886628D01*
X121886092Y-61886635D01*
X122068160Y-61962049D01*
X122068165Y-61962051D01*
X122068169Y-61962051D01*
X122068170Y-61962052D01*
X122261456Y-62000500D01*
X122261459Y-62000500D01*
X122458543Y-62000500D01*
X122588582Y-61974632D01*
X122651835Y-61962051D01*
X122833914Y-61886632D01*
X122997782Y-61777139D01*
X123137139Y-61637782D01*
X123246632Y-61473914D01*
X123322051Y-61291835D01*
X123360500Y-61098543D01*
X123899499Y-61098543D01*
X123937947Y-61291829D01*
X123937950Y-61291839D01*
X124013364Y-61473907D01*
X124013371Y-61473920D01*
X124122860Y-61637781D01*
X124122863Y-61637785D01*
X124262214Y-61777136D01*
X124262218Y-61777139D01*
X124426079Y-61886628D01*
X124426092Y-61886635D01*
X124608160Y-61962049D01*
X124608165Y-61962051D01*
X124608169Y-61962051D01*
X124608170Y-61962052D01*
X124801456Y-62000500D01*
X124801459Y-62000500D01*
X124998543Y-62000500D01*
X125128582Y-61974632D01*
X125191835Y-61962051D01*
X125373914Y-61886632D01*
X125537782Y-61777139D01*
X125677139Y-61637782D01*
X125786632Y-61473914D01*
X125862051Y-61291835D01*
X125900500Y-61098543D01*
X126439499Y-61098543D01*
X126477947Y-61291829D01*
X126477950Y-61291839D01*
X126553364Y-61473907D01*
X126553371Y-61473920D01*
X126662860Y-61637781D01*
X126662863Y-61637785D01*
X126802214Y-61777136D01*
X126802218Y-61777139D01*
X126966079Y-61886628D01*
X126966092Y-61886635D01*
X127148160Y-61962049D01*
X127148165Y-61962051D01*
X127148169Y-61962051D01*
X127148170Y-61962052D01*
X127341456Y-62000500D01*
X127341459Y-62000500D01*
X127538543Y-62000500D01*
X127668582Y-61974632D01*
X127731835Y-61962051D01*
X127913914Y-61886632D01*
X128077782Y-61777139D01*
X128217139Y-61637782D01*
X128326632Y-61473914D01*
X128402051Y-61291835D01*
X128440500Y-61098543D01*
X128979499Y-61098543D01*
X129017947Y-61291829D01*
X129017950Y-61291839D01*
X129093364Y-61473907D01*
X129093371Y-61473920D01*
X129202860Y-61637781D01*
X129202863Y-61637785D01*
X129342214Y-61777136D01*
X129342218Y-61777139D01*
X129506079Y-61886628D01*
X129506092Y-61886635D01*
X129688160Y-61962049D01*
X129688165Y-61962051D01*
X129688169Y-61962051D01*
X129688170Y-61962052D01*
X129881456Y-62000500D01*
X129881459Y-62000500D01*
X130078543Y-62000500D01*
X130208582Y-61974632D01*
X130271835Y-61962051D01*
X130453914Y-61886632D01*
X130617782Y-61777139D01*
X130757139Y-61637782D01*
X130866632Y-61473914D01*
X130942051Y-61291835D01*
X130980500Y-61098543D01*
X131519499Y-61098543D01*
X131557947Y-61291829D01*
X131557950Y-61291839D01*
X131633364Y-61473907D01*
X131633371Y-61473920D01*
X131742860Y-61637781D01*
X131742863Y-61637785D01*
X131882214Y-61777136D01*
X131882218Y-61777139D01*
X132046079Y-61886628D01*
X132046092Y-61886635D01*
X132228160Y-61962049D01*
X132228165Y-61962051D01*
X132228169Y-61962051D01*
X132228170Y-61962052D01*
X132421456Y-62000500D01*
X132421459Y-62000500D01*
X132618543Y-62000500D01*
X132748582Y-61974632D01*
X132811835Y-61962051D01*
X132993914Y-61886632D01*
X133157782Y-61777139D01*
X133297139Y-61637782D01*
X133406632Y-61473914D01*
X133482051Y-61291835D01*
X133520500Y-61098543D01*
X134059499Y-61098543D01*
X134097947Y-61291829D01*
X134097950Y-61291839D01*
X134173364Y-61473907D01*
X134173371Y-61473920D01*
X134282860Y-61637781D01*
X134282863Y-61637785D01*
X134422214Y-61777136D01*
X134422218Y-61777139D01*
X134586079Y-61886628D01*
X134586092Y-61886635D01*
X134768160Y-61962049D01*
X134768165Y-61962051D01*
X134768169Y-61962051D01*
X134768170Y-61962052D01*
X134961456Y-62000500D01*
X134961459Y-62000500D01*
X135158543Y-62000500D01*
X135288582Y-61974632D01*
X135351835Y-61962051D01*
X135533914Y-61886632D01*
X135697782Y-61777139D01*
X135697785Y-61777136D01*
X135802886Y-61672036D01*
X135837136Y-61637785D01*
X135837139Y-61637782D01*
X135946632Y-61473914D01*
X136022051Y-61291835D01*
X136060500Y-61098541D01*
X136060500Y-60901504D01*
X136600000Y-60901504D01*
X136600000Y-61098495D01*
X136638427Y-61291681D01*
X136638430Y-61291693D01*
X136713809Y-61473676D01*
X136713811Y-61473679D01*
X136794069Y-61593795D01*
X136794071Y-61593795D01*
X137156329Y-61231538D01*
X137199901Y-61307007D01*
X137292993Y-61400099D01*
X137368460Y-61443670D01*
X137006203Y-61805927D01*
X137006203Y-61805928D01*
X137126316Y-61886185D01*
X137126328Y-61886192D01*
X137308306Y-61961569D01*
X137308318Y-61961572D01*
X137501504Y-61999999D01*
X137501508Y-62000000D01*
X137698492Y-62000000D01*
X137698495Y-61999999D01*
X137891681Y-61961572D01*
X137891693Y-61961569D01*
X138073673Y-61886191D01*
X138073675Y-61886190D01*
X138193796Y-61805928D01*
X137831539Y-61443670D01*
X137907007Y-61400099D01*
X138000099Y-61307007D01*
X138043670Y-61231538D01*
X138405928Y-61593796D01*
X138486190Y-61473675D01*
X138486191Y-61473673D01*
X138561569Y-61291693D01*
X138561572Y-61291681D01*
X138599999Y-61098495D01*
X138600000Y-61098492D01*
X138600000Y-60901508D01*
X138599999Y-60901504D01*
X138561572Y-60708318D01*
X138561569Y-60708306D01*
X138486192Y-60526328D01*
X138486185Y-60526316D01*
X138405927Y-60406203D01*
X138043670Y-60768460D01*
X138000099Y-60692993D01*
X137907007Y-60599901D01*
X137831538Y-60556329D01*
X138193795Y-60194071D01*
X138193795Y-60194069D01*
X138073679Y-60113811D01*
X138073676Y-60113809D01*
X137891693Y-60038430D01*
X137891681Y-60038427D01*
X137698495Y-60000000D01*
X137501504Y-60000000D01*
X137308318Y-60038427D01*
X137308310Y-60038429D01*
X137126325Y-60113809D01*
X137126318Y-60113813D01*
X137006203Y-60194071D01*
X137006202Y-60194071D01*
X137368461Y-60556329D01*
X137292993Y-60599901D01*
X137199901Y-60692993D01*
X137156329Y-60768460D01*
X136794071Y-60406202D01*
X136794071Y-60406203D01*
X136713813Y-60526318D01*
X136713809Y-60526325D01*
X136638429Y-60708310D01*
X136638427Y-60708318D01*
X136600000Y-60901504D01*
X136060500Y-60901504D01*
X136060500Y-60901459D01*
X136060500Y-60901456D01*
X136022052Y-60708170D01*
X136022051Y-60708169D01*
X136022051Y-60708165D01*
X135977207Y-60599901D01*
X135946635Y-60526092D01*
X135946628Y-60526079D01*
X135837139Y-60362218D01*
X135837136Y-60362214D01*
X135697785Y-60222863D01*
X135697781Y-60222860D01*
X135533920Y-60113371D01*
X135533907Y-60113364D01*
X135351839Y-60037950D01*
X135351829Y-60037947D01*
X135158543Y-59999500D01*
X135158541Y-59999500D01*
X134961459Y-59999500D01*
X134961457Y-59999500D01*
X134768170Y-60037947D01*
X134768160Y-60037950D01*
X134586092Y-60113364D01*
X134586079Y-60113371D01*
X134422218Y-60222860D01*
X134422214Y-60222863D01*
X134282863Y-60362214D01*
X134282860Y-60362218D01*
X134173371Y-60526079D01*
X134173364Y-60526092D01*
X134097950Y-60708160D01*
X134097947Y-60708170D01*
X134059500Y-60901456D01*
X134059500Y-60901459D01*
X134059500Y-61098541D01*
X134059500Y-61098543D01*
X134059499Y-61098543D01*
X133520500Y-61098543D01*
X133520500Y-61098541D01*
X133520500Y-60901459D01*
X133520500Y-60901456D01*
X133482052Y-60708170D01*
X133482051Y-60708169D01*
X133482051Y-60708165D01*
X133437207Y-60599901D01*
X133406635Y-60526092D01*
X133406628Y-60526079D01*
X133297139Y-60362218D01*
X133297136Y-60362214D01*
X133157785Y-60222863D01*
X133157781Y-60222860D01*
X132993920Y-60113371D01*
X132993907Y-60113364D01*
X132811839Y-60037950D01*
X132811829Y-60037947D01*
X132618543Y-59999500D01*
X132618541Y-59999500D01*
X132421459Y-59999500D01*
X132421457Y-59999500D01*
X132228170Y-60037947D01*
X132228160Y-60037950D01*
X132046092Y-60113364D01*
X132046079Y-60113371D01*
X131882218Y-60222860D01*
X131882214Y-60222863D01*
X131742863Y-60362214D01*
X131742860Y-60362218D01*
X131633371Y-60526079D01*
X131633364Y-60526092D01*
X131557950Y-60708160D01*
X131557947Y-60708170D01*
X131519500Y-60901456D01*
X131519500Y-60901459D01*
X131519500Y-61098541D01*
X131519500Y-61098543D01*
X131519499Y-61098543D01*
X130980500Y-61098543D01*
X130980500Y-61098541D01*
X130980500Y-60901459D01*
X130980500Y-60901456D01*
X130942052Y-60708170D01*
X130942051Y-60708169D01*
X130942051Y-60708165D01*
X130897207Y-60599901D01*
X130866635Y-60526092D01*
X130866628Y-60526079D01*
X130757139Y-60362218D01*
X130757136Y-60362214D01*
X130617785Y-60222863D01*
X130617781Y-60222860D01*
X130453920Y-60113371D01*
X130453907Y-60113364D01*
X130271839Y-60037950D01*
X130271829Y-60037947D01*
X130078543Y-59999500D01*
X130078541Y-59999500D01*
X129881459Y-59999500D01*
X129881457Y-59999500D01*
X129688170Y-60037947D01*
X129688160Y-60037950D01*
X129506092Y-60113364D01*
X129506079Y-60113371D01*
X129342218Y-60222860D01*
X129342214Y-60222863D01*
X129202863Y-60362214D01*
X129202860Y-60362218D01*
X129093371Y-60526079D01*
X129093364Y-60526092D01*
X129017950Y-60708160D01*
X129017947Y-60708170D01*
X128979500Y-60901456D01*
X128979500Y-60901459D01*
X128979500Y-61098541D01*
X128979500Y-61098543D01*
X128979499Y-61098543D01*
X128440500Y-61098543D01*
X128440500Y-61098541D01*
X128440500Y-60901459D01*
X128440500Y-60901456D01*
X128402052Y-60708170D01*
X128402051Y-60708169D01*
X128402051Y-60708165D01*
X128357207Y-60599901D01*
X128326635Y-60526092D01*
X128326628Y-60526079D01*
X128217139Y-60362218D01*
X128217136Y-60362214D01*
X128077785Y-60222863D01*
X128077781Y-60222860D01*
X127913920Y-60113371D01*
X127913907Y-60113364D01*
X127731839Y-60037950D01*
X127731829Y-60037947D01*
X127538543Y-59999500D01*
X127538541Y-59999500D01*
X127341459Y-59999500D01*
X127341457Y-59999500D01*
X127148170Y-60037947D01*
X127148160Y-60037950D01*
X126966092Y-60113364D01*
X126966079Y-60113371D01*
X126802218Y-60222860D01*
X126802214Y-60222863D01*
X126662863Y-60362214D01*
X126662860Y-60362218D01*
X126553371Y-60526079D01*
X126553364Y-60526092D01*
X126477950Y-60708160D01*
X126477947Y-60708170D01*
X126439500Y-60901456D01*
X126439500Y-60901459D01*
X126439500Y-61098541D01*
X126439500Y-61098543D01*
X126439499Y-61098543D01*
X125900500Y-61098543D01*
X125900500Y-61098541D01*
X125900500Y-60901459D01*
X125900500Y-60901456D01*
X125862052Y-60708170D01*
X125862051Y-60708169D01*
X125862051Y-60708165D01*
X125817207Y-60599901D01*
X125786635Y-60526092D01*
X125786628Y-60526079D01*
X125677139Y-60362218D01*
X125677136Y-60362214D01*
X125537785Y-60222863D01*
X125537781Y-60222860D01*
X125373920Y-60113371D01*
X125373907Y-60113364D01*
X125191839Y-60037950D01*
X125191829Y-60037947D01*
X124998543Y-59999500D01*
X124998541Y-59999500D01*
X124801459Y-59999500D01*
X124801457Y-59999500D01*
X124608170Y-60037947D01*
X124608160Y-60037950D01*
X124426092Y-60113364D01*
X124426079Y-60113371D01*
X124262218Y-60222860D01*
X124262214Y-60222863D01*
X124122863Y-60362214D01*
X124122860Y-60362218D01*
X124013371Y-60526079D01*
X124013364Y-60526092D01*
X123937950Y-60708160D01*
X123937947Y-60708170D01*
X123899500Y-60901456D01*
X123899500Y-60901459D01*
X123899500Y-61098541D01*
X123899500Y-61098543D01*
X123899499Y-61098543D01*
X123360500Y-61098543D01*
X123360500Y-61098541D01*
X123360500Y-60901459D01*
X123360500Y-60901456D01*
X123322052Y-60708170D01*
X123322051Y-60708169D01*
X123322051Y-60708165D01*
X123277207Y-60599901D01*
X123246635Y-60526092D01*
X123246628Y-60526079D01*
X123137139Y-60362218D01*
X123137136Y-60362214D01*
X122997785Y-60222863D01*
X122997781Y-60222860D01*
X122833920Y-60113371D01*
X122833907Y-60113364D01*
X122651839Y-60037950D01*
X122651829Y-60037947D01*
X122458543Y-59999500D01*
X122458541Y-59999500D01*
X122261459Y-59999500D01*
X122261457Y-59999500D01*
X122068170Y-60037947D01*
X122068160Y-60037950D01*
X121886092Y-60113364D01*
X121886079Y-60113371D01*
X121722218Y-60222860D01*
X121722214Y-60222863D01*
X121582863Y-60362214D01*
X121582860Y-60362218D01*
X121473371Y-60526079D01*
X121473364Y-60526092D01*
X121397950Y-60708160D01*
X121397947Y-60708170D01*
X121359500Y-60901456D01*
X121359500Y-60901459D01*
X121359500Y-61098541D01*
X121359500Y-61098543D01*
X121359499Y-61098543D01*
X120500500Y-61098543D01*
X120500500Y-56038226D01*
X120520185Y-55971187D01*
X120572989Y-55925432D01*
X120642147Y-55915488D01*
X120705703Y-55944513D01*
X120742431Y-55999908D01*
X120748444Y-56018414D01*
X120844951Y-56207820D01*
X120969890Y-56379786D01*
X121120213Y-56530109D01*
X121292179Y-56655048D01*
X121292181Y-56655049D01*
X121292184Y-56655051D01*
X121481588Y-56751557D01*
X121683757Y-56817246D01*
X121893713Y-56850500D01*
X121893714Y-56850500D01*
X122106286Y-56850500D01*
X122106287Y-56850500D01*
X122316243Y-56817246D01*
X122518412Y-56751557D01*
X122707816Y-56655051D01*
X122729789Y-56639086D01*
X122879786Y-56530109D01*
X122879788Y-56530106D01*
X122879792Y-56530104D01*
X123030104Y-56379792D01*
X123030106Y-56379788D01*
X123030109Y-56379786D01*
X123155048Y-56207820D01*
X123155047Y-56207820D01*
X123155051Y-56207816D01*
X123251557Y-56018412D01*
X123317246Y-55816243D01*
X123350500Y-55606287D01*
X123350500Y-55393713D01*
X123317246Y-55183757D01*
X123251557Y-54981588D01*
X123155051Y-54792184D01*
X123155049Y-54792181D01*
X123155048Y-54792179D01*
X123030109Y-54620213D01*
X122879786Y-54469890D01*
X122707820Y-54344951D01*
X122518414Y-54248444D01*
X122518413Y-54248443D01*
X122518412Y-54248443D01*
X122316243Y-54182754D01*
X122316241Y-54182753D01*
X122316240Y-54182753D01*
X122154957Y-54157208D01*
X122106287Y-54149500D01*
X121893713Y-54149500D01*
X121845042Y-54157208D01*
X121683760Y-54182753D01*
X121481585Y-54248444D01*
X121292179Y-54344951D01*
X121120213Y-54469890D01*
X120969890Y-54620213D01*
X120844951Y-54792179D01*
X120748445Y-54981582D01*
X120748443Y-54981587D01*
X120748443Y-54981588D01*
X120742429Y-55000094D01*
X120702992Y-55057768D01*
X120638633Y-55084965D01*
X120569787Y-55073050D01*
X120518312Y-55025805D01*
X120500500Y-54961773D01*
X120500500Y-52504066D01*
X120500765Y-52495956D01*
X120504819Y-52434108D01*
X120517075Y-52247102D01*
X120519190Y-52231048D01*
X120567045Y-51990462D01*
X120571243Y-51974797D01*
X120594337Y-51906762D01*
X120650093Y-51742512D01*
X120656291Y-51727547D01*
X120764790Y-51507533D01*
X120772893Y-51493498D01*
X120909182Y-51289527D01*
X120919039Y-51276681D01*
X121080786Y-51092244D01*
X121092244Y-51080786D01*
X121276681Y-50919039D01*
X121289527Y-50909182D01*
X121493498Y-50772893D01*
X121507533Y-50764790D01*
X121727547Y-50656291D01*
X121742512Y-50650093D01*
X121906762Y-50594337D01*
X121974797Y-50571243D01*
X121990464Y-50567045D01*
X122231048Y-50519190D01*
X122247102Y-50517075D01*
X122495957Y-50500765D01*
X122504067Y-50500500D01*
X122565892Y-50500500D01*
X137434108Y-50500500D01*
X137495933Y-50500500D01*
X137504043Y-50500765D01*
G37*
%TD.AperFunction*%
%TD*%
%TA.AperFunction,Conductor*%
%TO.N,GND*%
G36*
X122701921Y-63779685D02*
G01*
X122738793Y-63819644D01*
X122739983Y-63818849D01*
X122852860Y-63987781D01*
X122852863Y-63987785D01*
X122992214Y-64127136D01*
X122992218Y-64127139D01*
X123156079Y-64236628D01*
X123156092Y-64236635D01*
X123326680Y-64307294D01*
X123338165Y-64312051D01*
X123338169Y-64312051D01*
X123338170Y-64312052D01*
X123531456Y-64350500D01*
X123531459Y-64350500D01*
X123728543Y-64350500D01*
X123858582Y-64324632D01*
X123921835Y-64312051D01*
X124103914Y-64236632D01*
X124267782Y-64127139D01*
X124407139Y-63987782D01*
X124463157Y-63903943D01*
X124520017Y-63818849D01*
X124521419Y-63819785D01*
X124564721Y-63775703D01*
X124625118Y-63760000D01*
X125174882Y-63760000D01*
X125241921Y-63779685D01*
X125278793Y-63819644D01*
X125279983Y-63818849D01*
X125392860Y-63987781D01*
X125392863Y-63987785D01*
X125532214Y-64127136D01*
X125532218Y-64127139D01*
X125696079Y-64236628D01*
X125696092Y-64236635D01*
X125866680Y-64307294D01*
X125878165Y-64312051D01*
X125878169Y-64312051D01*
X125878170Y-64312052D01*
X126071456Y-64350500D01*
X126071459Y-64350500D01*
X126268543Y-64350500D01*
X126398582Y-64324632D01*
X126461835Y-64312051D01*
X126643914Y-64236632D01*
X126807782Y-64127139D01*
X126947139Y-63987782D01*
X127003157Y-63903943D01*
X127060017Y-63818849D01*
X127061419Y-63819785D01*
X127104721Y-63775703D01*
X127165118Y-63760000D01*
X127714882Y-63760000D01*
X127781921Y-63779685D01*
X127818793Y-63819644D01*
X127819983Y-63818849D01*
X127932860Y-63987781D01*
X127932863Y-63987785D01*
X128072214Y-64127136D01*
X128072218Y-64127139D01*
X128236079Y-64236628D01*
X128236092Y-64236635D01*
X128406680Y-64307294D01*
X128418165Y-64312051D01*
X128418169Y-64312051D01*
X128418170Y-64312052D01*
X128611456Y-64350500D01*
X128611459Y-64350500D01*
X128808543Y-64350500D01*
X128938582Y-64324632D01*
X129001835Y-64312051D01*
X129183914Y-64236632D01*
X129347782Y-64127139D01*
X129487139Y-63987782D01*
X129543157Y-63903943D01*
X129600017Y-63818849D01*
X129601419Y-63819785D01*
X129644721Y-63775703D01*
X129705118Y-63760000D01*
X130254882Y-63760000D01*
X130321921Y-63779685D01*
X130358793Y-63819644D01*
X130359983Y-63818849D01*
X130472860Y-63987781D01*
X130472863Y-63987785D01*
X130612214Y-64127136D01*
X130612218Y-64127139D01*
X130776079Y-64236628D01*
X130776092Y-64236635D01*
X130946680Y-64307294D01*
X130958165Y-64312051D01*
X130958169Y-64312051D01*
X130958170Y-64312052D01*
X131151456Y-64350500D01*
X131151459Y-64350500D01*
X131348543Y-64350500D01*
X131478582Y-64324632D01*
X131541835Y-64312051D01*
X131723914Y-64236632D01*
X131887782Y-64127139D01*
X132027139Y-63987782D01*
X132083157Y-63903943D01*
X132140017Y-63818849D01*
X132141419Y-63819785D01*
X132184721Y-63775703D01*
X132245118Y-63760000D01*
X132794882Y-63760000D01*
X132861921Y-63779685D01*
X132898793Y-63819644D01*
X132899983Y-63818849D01*
X133012860Y-63987781D01*
X133012863Y-63987785D01*
X133152214Y-64127136D01*
X133152218Y-64127139D01*
X133316079Y-64236628D01*
X133316092Y-64236635D01*
X133486680Y-64307294D01*
X133498165Y-64312051D01*
X133498169Y-64312051D01*
X133498170Y-64312052D01*
X133691456Y-64350500D01*
X133691459Y-64350500D01*
X133888543Y-64350500D01*
X134018582Y-64324632D01*
X134081835Y-64312051D01*
X134263914Y-64236632D01*
X134427782Y-64127139D01*
X134567139Y-63987782D01*
X134623157Y-63903943D01*
X134680017Y-63818849D01*
X134681419Y-63819785D01*
X134724721Y-63775703D01*
X134785118Y-63760000D01*
X135334882Y-63760000D01*
X135401921Y-63779685D01*
X135438793Y-63819644D01*
X135439983Y-63818849D01*
X135552860Y-63987781D01*
X135552863Y-63987785D01*
X135692214Y-64127136D01*
X135692218Y-64127139D01*
X135856079Y-64236628D01*
X135856092Y-64236635D01*
X136026680Y-64307294D01*
X136038165Y-64312051D01*
X136038169Y-64312051D01*
X136038170Y-64312052D01*
X136231456Y-64350500D01*
X136231459Y-64350500D01*
X136428543Y-64350500D01*
X136558582Y-64324632D01*
X136621835Y-64312051D01*
X136803914Y-64236632D01*
X136967782Y-64127139D01*
X137107139Y-63987782D01*
X137163157Y-63903943D01*
X137220017Y-63818849D01*
X137221419Y-63819785D01*
X137264721Y-63775703D01*
X137325118Y-63760000D01*
X137874882Y-63760000D01*
X137941921Y-63779685D01*
X137978793Y-63819644D01*
X137979983Y-63818849D01*
X138092860Y-63987781D01*
X138092863Y-63987785D01*
X138232214Y-64127136D01*
X138232218Y-64127139D01*
X138396079Y-64236628D01*
X138396092Y-64236635D01*
X138566680Y-64307294D01*
X138578165Y-64312051D01*
X138578169Y-64312051D01*
X138578170Y-64312052D01*
X138771456Y-64350500D01*
X138771459Y-64350500D01*
X138968543Y-64350500D01*
X139098582Y-64324632D01*
X139161835Y-64312051D01*
X139328048Y-64243204D01*
X139397517Y-64235735D01*
X139459996Y-64267010D01*
X139495648Y-64327099D01*
X139499500Y-64357765D01*
X139499500Y-80745933D01*
X139499235Y-80754043D01*
X139482925Y-81002883D01*
X139480807Y-81018964D01*
X139432954Y-81259535D01*
X139428756Y-81275202D01*
X139349909Y-81507479D01*
X139343702Y-81522465D01*
X139235212Y-81742460D01*
X139227102Y-81756506D01*
X139090825Y-81960460D01*
X139080951Y-81973329D01*
X138919218Y-82157749D01*
X138907749Y-82169218D01*
X138723328Y-82330951D01*
X138710459Y-82340825D01*
X138514648Y-82471661D01*
X138499909Y-82480110D01*
X135835001Y-83773741D01*
X135835000Y-83773741D01*
X135824360Y-83778905D01*
X135806814Y-83783608D01*
X135765312Y-83807567D01*
X135761314Y-83809509D01*
X135761294Y-83809521D01*
X135722154Y-83828521D01*
X135717355Y-83832678D01*
X135698187Y-83846323D01*
X135692693Y-83849495D01*
X135692685Y-83849500D01*
X135661916Y-83880269D01*
X135661915Y-83880268D01*
X135658765Y-83883417D01*
X135622536Y-83914794D01*
X135612351Y-83929831D01*
X135604000Y-83938183D01*
X135603996Y-83938189D01*
X135599500Y-83942685D01*
X135577746Y-83980362D01*
X135573034Y-83987886D01*
X135548642Y-84023905D01*
X135548638Y-84023912D01*
X135546564Y-84029901D01*
X135542692Y-84041079D01*
X135533608Y-84056814D01*
X135521199Y-84103119D01*
X135519745Y-84107319D01*
X135505503Y-84148436D01*
X135505048Y-84154761D01*
X135505049Y-84154762D01*
X135504202Y-84166556D01*
X135499500Y-84184108D01*
X135499500Y-84232049D01*
X135499182Y-84236479D01*
X135499182Y-84236482D01*
X135496066Y-84279880D01*
X135497265Y-84286110D01*
X135499500Y-84309545D01*
X135499500Y-88876228D01*
X135479815Y-88943267D01*
X135427011Y-88989022D01*
X135357853Y-88998966D01*
X135294297Y-88969941D01*
X135272398Y-88945119D01*
X135238302Y-88894092D01*
X135238299Y-88894088D01*
X135105911Y-88761700D01*
X135105907Y-88761697D01*
X134950237Y-88657681D01*
X134950228Y-88657676D01*
X134777251Y-88586027D01*
X134777243Y-88586025D01*
X134593620Y-88549500D01*
X134593616Y-88549500D01*
X134406384Y-88549500D01*
X134406379Y-88549500D01*
X134222756Y-88586025D01*
X134222748Y-88586027D01*
X134049771Y-88657676D01*
X134049762Y-88657681D01*
X133894092Y-88761697D01*
X133894088Y-88761700D01*
X133761700Y-88894088D01*
X133761697Y-88894092D01*
X133657681Y-89049762D01*
X133657676Y-89049771D01*
X133586027Y-89222748D01*
X133586026Y-89222752D01*
X133548691Y-89410447D01*
X133516306Y-89472358D01*
X133455591Y-89506932D01*
X133443262Y-89509195D01*
X133440943Y-89509500D01*
X133288216Y-89550423D01*
X133288209Y-89550426D01*
X133151290Y-89629475D01*
X133151282Y-89629481D01*
X133039481Y-89741282D01*
X133039475Y-89741290D01*
X132960426Y-89878209D01*
X132960423Y-89878216D01*
X132919500Y-90030943D01*
X132919500Y-90189057D01*
X132932695Y-90238299D01*
X132960423Y-90341783D01*
X132960426Y-90341790D01*
X133039475Y-90478709D01*
X133039479Y-90478714D01*
X133039480Y-90478716D01*
X133151284Y-90590520D01*
X133151286Y-90590521D01*
X133151290Y-90590524D01*
X133288209Y-90669573D01*
X133288216Y-90669577D01*
X133440943Y-90710500D01*
X133440945Y-90710500D01*
X133599055Y-90710500D01*
X133599057Y-90710500D01*
X133751784Y-90669577D01*
X133888716Y-90590520D01*
X134000520Y-90478716D01*
X134019200Y-90446359D01*
X134069765Y-90398144D01*
X134138372Y-90384919D01*
X134174038Y-90393796D01*
X134222749Y-90413973D01*
X134385576Y-90446361D01*
X134406379Y-90450499D01*
X134406383Y-90450500D01*
X134406384Y-90450500D01*
X134593617Y-90450500D01*
X134593618Y-90450499D01*
X134777251Y-90413973D01*
X134950231Y-90342322D01*
X135105908Y-90238302D01*
X135238302Y-90105908D01*
X135272398Y-90054880D01*
X135326010Y-90010075D01*
X135395335Y-90001368D01*
X135458362Y-90031522D01*
X135495082Y-90090965D01*
X135499500Y-90123771D01*
X135499500Y-95375500D01*
X135479815Y-95442539D01*
X135427011Y-95488294D01*
X135375500Y-95499500D01*
X135048227Y-95499500D01*
X134981188Y-95479815D01*
X134935433Y-95427011D01*
X134925540Y-95367649D01*
X134925000Y-95367649D01*
X134925000Y-95364406D01*
X134924824Y-95363350D01*
X134925000Y-95361562D01*
X134925000Y-94750000D01*
X134525000Y-94750000D01*
X134525000Y-94450000D01*
X134925000Y-94450000D01*
X134925000Y-93838440D01*
X134900982Y-93717699D01*
X134900979Y-93717689D01*
X134853871Y-93603958D01*
X134853864Y-93603945D01*
X134785469Y-93501586D01*
X134785466Y-93501582D01*
X134698417Y-93414533D01*
X134698413Y-93414530D01*
X134596054Y-93346135D01*
X134596041Y-93346128D01*
X134482310Y-93299020D01*
X134450000Y-93292592D01*
X134450000Y-93756802D01*
X134427452Y-93734254D01*
X134344755Y-93700000D01*
X134255245Y-93700000D01*
X134172548Y-93734254D01*
X134150000Y-93756802D01*
X134150000Y-93292592D01*
X134117689Y-93299020D01*
X134003958Y-93346128D01*
X134003945Y-93346135D01*
X133901586Y-93414530D01*
X133901582Y-93414533D01*
X133814533Y-93501582D01*
X133814530Y-93501586D01*
X133746135Y-93603945D01*
X133746128Y-93603958D01*
X133699020Y-93717689D01*
X133699017Y-93717699D01*
X133675000Y-93838440D01*
X133675000Y-94450000D01*
X134075000Y-94450000D01*
X134075000Y-94750000D01*
X133675000Y-94750000D01*
X133675000Y-95361562D01*
X133675176Y-95363350D01*
X133675000Y-95364277D01*
X133675000Y-95367649D01*
X133674361Y-95367649D01*
X133662155Y-95431996D01*
X133614089Y-95482704D01*
X133551773Y-95499500D01*
X126448227Y-95499500D01*
X126381188Y-95479815D01*
X126335433Y-95427011D01*
X126325540Y-95367649D01*
X126325000Y-95367649D01*
X126325000Y-95364406D01*
X126324824Y-95363350D01*
X126325000Y-95361562D01*
X126325000Y-94750000D01*
X125925000Y-94750000D01*
X125925000Y-94450000D01*
X126325000Y-94450000D01*
X126325000Y-93838440D01*
X126300982Y-93717699D01*
X126300979Y-93717689D01*
X126253871Y-93603958D01*
X126253864Y-93603945D01*
X126185469Y-93501586D01*
X126185466Y-93501582D01*
X126098417Y-93414533D01*
X126098413Y-93414530D01*
X125996054Y-93346135D01*
X125996041Y-93346128D01*
X125882310Y-93299020D01*
X125850000Y-93292592D01*
X125850000Y-93756802D01*
X125827452Y-93734254D01*
X125744755Y-93700000D01*
X125655245Y-93700000D01*
X125572548Y-93734254D01*
X125550000Y-93756802D01*
X125550000Y-93292592D01*
X125517689Y-93299020D01*
X125403958Y-93346128D01*
X125403945Y-93346135D01*
X125301586Y-93414530D01*
X125301582Y-93414533D01*
X125214533Y-93501582D01*
X125214530Y-93501586D01*
X125146135Y-93603945D01*
X125146128Y-93603958D01*
X125099020Y-93717689D01*
X125099017Y-93717699D01*
X125075000Y-93838440D01*
X125075000Y-94450000D01*
X125475000Y-94450000D01*
X125475000Y-94750000D01*
X125075000Y-94750000D01*
X125075000Y-95361562D01*
X125075176Y-95363350D01*
X125075000Y-95364277D01*
X125075000Y-95367649D01*
X125074361Y-95367649D01*
X125062155Y-95431996D01*
X125014089Y-95482704D01*
X124951773Y-95499500D01*
X124624500Y-95499500D01*
X124557461Y-95479815D01*
X124511706Y-95427011D01*
X124500500Y-95375500D01*
X124500500Y-89820943D01*
X126999500Y-89820943D01*
X126999500Y-89979057D01*
X127007812Y-90010075D01*
X127040423Y-90131783D01*
X127040426Y-90131790D01*
X127119475Y-90268709D01*
X127119479Y-90268714D01*
X127119480Y-90268716D01*
X127231284Y-90380520D01*
X127231286Y-90380521D01*
X127231290Y-90380524D01*
X127345325Y-90446361D01*
X127368216Y-90459577D01*
X127520943Y-90500500D01*
X127520945Y-90500500D01*
X127679055Y-90500500D01*
X127679057Y-90500500D01*
X127831784Y-90459577D01*
X127968716Y-90380520D01*
X128080520Y-90268716D01*
X128159577Y-90131784D01*
X128200500Y-89979057D01*
X128200500Y-89820943D01*
X128198642Y-89814008D01*
X128200303Y-89744161D01*
X128230733Y-89694236D01*
X129490460Y-88434511D01*
X129530021Y-88365989D01*
X129550500Y-88289562D01*
X129550500Y-86925833D01*
X129570185Y-86858794D01*
X129586819Y-86838152D01*
X129714533Y-86710438D01*
X129990460Y-86434511D01*
X130030022Y-86365988D01*
X130050500Y-86289562D01*
X130050500Y-86210438D01*
X130050500Y-85541496D01*
X130070185Y-85474457D01*
X130112501Y-85434108D01*
X130118716Y-85430520D01*
X130230520Y-85318716D01*
X130309577Y-85181784D01*
X130350500Y-85029057D01*
X130350500Y-84870943D01*
X130309577Y-84718216D01*
X130309573Y-84718209D01*
X130230524Y-84581290D01*
X130230518Y-84581282D01*
X130118717Y-84469481D01*
X130118709Y-84469475D01*
X129981790Y-84390426D01*
X129981786Y-84390424D01*
X129981784Y-84390423D01*
X129829057Y-84349500D01*
X129670943Y-84349500D01*
X129518216Y-84390423D01*
X129518209Y-84390426D01*
X129381290Y-84469475D01*
X129381282Y-84469481D01*
X129269481Y-84581282D01*
X129269475Y-84581290D01*
X129190426Y-84718209D01*
X129190423Y-84718216D01*
X129149500Y-84870943D01*
X129149500Y-85029056D01*
X129190423Y-85181783D01*
X129190426Y-85181790D01*
X129269475Y-85318709D01*
X129269481Y-85318717D01*
X129381284Y-85430520D01*
X129387499Y-85434108D01*
X129435715Y-85484675D01*
X129449500Y-85541496D01*
X129449500Y-86074167D01*
X129429815Y-86141206D01*
X129413181Y-86161848D01*
X129009541Y-86565487D01*
X129009535Y-86565495D01*
X128969982Y-86634004D01*
X128969979Y-86634009D01*
X128949500Y-86710439D01*
X128949500Y-88074166D01*
X128929815Y-88141205D01*
X128913181Y-88161847D01*
X127805764Y-89269263D01*
X127744441Y-89302748D01*
X127685992Y-89301358D01*
X127679057Y-89299500D01*
X127520943Y-89299500D01*
X127368216Y-89340423D01*
X127368209Y-89340426D01*
X127231290Y-89419475D01*
X127231282Y-89419481D01*
X127119481Y-89531282D01*
X127119475Y-89531290D01*
X127040426Y-89668209D01*
X127040423Y-89668216D01*
X126999500Y-89820943D01*
X124500500Y-89820943D01*
X124500500Y-84297724D01*
X124503934Y-84279881D01*
X124500500Y-84232049D01*
X124500500Y-84184108D01*
X124498857Y-84177978D01*
X124494951Y-84154763D01*
X124494497Y-84148439D01*
X124494497Y-84148436D01*
X124478801Y-84103127D01*
X124466392Y-84056814D01*
X124457306Y-84041078D01*
X124451360Y-84023911D01*
X124426960Y-83987881D01*
X124422262Y-83980379D01*
X124400500Y-83942686D01*
X124387652Y-83929838D01*
X124377464Y-83914794D01*
X124341217Y-83883403D01*
X124307314Y-83849500D01*
X124307313Y-83849499D01*
X124307310Y-83849497D01*
X124301822Y-83846329D01*
X124282644Y-83832677D01*
X124282040Y-83832154D01*
X124277845Y-83828521D01*
X124277843Y-83828520D01*
X124277843Y-83828519D01*
X124238712Y-83809524D01*
X124230863Y-83805360D01*
X124193188Y-83783608D01*
X124187051Y-83781964D01*
X124165000Y-83773742D01*
X121565464Y-82511844D01*
X121565461Y-82511844D01*
X121543005Y-82500943D01*
X121500088Y-82480110D01*
X121485349Y-82471661D01*
X121387647Y-82406379D01*
X124049500Y-82406379D01*
X124049500Y-82593620D01*
X124086025Y-82777243D01*
X124086027Y-82777251D01*
X124157676Y-82950228D01*
X124157681Y-82950237D01*
X124261697Y-83105907D01*
X124261700Y-83105911D01*
X124394088Y-83238299D01*
X124394092Y-83238302D01*
X124549762Y-83342318D01*
X124549768Y-83342321D01*
X124549769Y-83342322D01*
X124722749Y-83413973D01*
X124906379Y-83450499D01*
X124906383Y-83450500D01*
X124906384Y-83450500D01*
X125093617Y-83450500D01*
X125093618Y-83450499D01*
X125277251Y-83413973D01*
X125450231Y-83342322D01*
X125605908Y-83238302D01*
X125738302Y-83105908D01*
X125842322Y-82950231D01*
X125913973Y-82777251D01*
X125950500Y-82593616D01*
X125950500Y-82406384D01*
X125913973Y-82222749D01*
X125883657Y-82149561D01*
X125876189Y-82080097D01*
X125907463Y-82017617D01*
X125910507Y-82014462D01*
X126450460Y-81474511D01*
X126465010Y-81449309D01*
X126490021Y-81405989D01*
X126500407Y-81367227D01*
X126504253Y-81358506D01*
X126520880Y-81338799D01*
X126534302Y-81316781D01*
X126543044Y-81312534D01*
X126549312Y-81305106D01*
X126573956Y-81297517D01*
X126597149Y-81286251D01*
X126608751Y-81286803D01*
X126616087Y-81284545D01*
X126627337Y-81287688D01*
X126649803Y-81288758D01*
X126730943Y-81310500D01*
X126730945Y-81310500D01*
X126889055Y-81310500D01*
X126889057Y-81310500D01*
X127041784Y-81269577D01*
X127178716Y-81190520D01*
X127290520Y-81078716D01*
X127369577Y-80941784D01*
X127410500Y-80789057D01*
X127410500Y-80630943D01*
X127369577Y-80478216D01*
X127365122Y-80470500D01*
X127290524Y-80341290D01*
X127290518Y-80341282D01*
X127178717Y-80229481D01*
X127178709Y-80229475D01*
X127041790Y-80150426D01*
X127041786Y-80150424D01*
X127041784Y-80150423D01*
X126889057Y-80109500D01*
X126730943Y-80109500D01*
X126578216Y-80150423D01*
X126578209Y-80150426D01*
X126441290Y-80229475D01*
X126441282Y-80229481D01*
X126329481Y-80341282D01*
X126329475Y-80341290D01*
X126250426Y-80478209D01*
X126250422Y-80478217D01*
X126242041Y-80509495D01*
X126209948Y-80565079D01*
X126025489Y-80749540D01*
X125969541Y-80805487D01*
X125969535Y-80805495D01*
X125929982Y-80874004D01*
X125929979Y-80874009D01*
X125909500Y-80950439D01*
X125909500Y-81114166D01*
X125889815Y-81181205D01*
X125873181Y-81201847D01*
X125485567Y-81589460D01*
X125424244Y-81622945D01*
X125354552Y-81617961D01*
X125350433Y-81616340D01*
X125277251Y-81586027D01*
X125277243Y-81586025D01*
X125093620Y-81549500D01*
X125093616Y-81549500D01*
X124906384Y-81549500D01*
X124906379Y-81549500D01*
X124722756Y-81586025D01*
X124722748Y-81586027D01*
X124549771Y-81657676D01*
X124549762Y-81657681D01*
X124394092Y-81761697D01*
X124394088Y-81761700D01*
X124261700Y-81894088D01*
X124261697Y-81894092D01*
X124157681Y-82049762D01*
X124157676Y-82049771D01*
X124086027Y-82222748D01*
X124086025Y-82222756D01*
X124049500Y-82406379D01*
X121387647Y-82406379D01*
X121339539Y-82374234D01*
X121289537Y-82340824D01*
X121276671Y-82330951D01*
X121092250Y-82169218D01*
X121080781Y-82157749D01*
X120986086Y-82049771D01*
X120919045Y-81973325D01*
X120909174Y-81960460D01*
X120772897Y-81756506D01*
X120764787Y-81742460D01*
X120759529Y-81731799D01*
X120656294Y-81522458D01*
X120650090Y-81507479D01*
X120571243Y-81275202D01*
X120567045Y-81259535D01*
X120531078Y-81078716D01*
X120519190Y-81018953D01*
X120517075Y-81002895D01*
X120500765Y-80754043D01*
X120500500Y-80745933D01*
X120500500Y-75370943D01*
X123819500Y-75370943D01*
X123819500Y-75529057D01*
X123820962Y-75534511D01*
X123860423Y-75681783D01*
X123860426Y-75681790D01*
X123939475Y-75818709D01*
X123939479Y-75818714D01*
X123939480Y-75818716D01*
X124051284Y-75930520D01*
X124051285Y-75930521D01*
X124051287Y-75930522D01*
X124191444Y-76011441D01*
X124239659Y-76062007D01*
X124252883Y-76130614D01*
X124232547Y-76187718D01*
X124157680Y-76299764D01*
X124157676Y-76299771D01*
X124086027Y-76472748D01*
X124086025Y-76472756D01*
X124049500Y-76656379D01*
X124049500Y-76843620D01*
X124086025Y-77027243D01*
X124086027Y-77027251D01*
X124157676Y-77200228D01*
X124157681Y-77200237D01*
X124261697Y-77355907D01*
X124261700Y-77355911D01*
X124394088Y-77488299D01*
X124394092Y-77488302D01*
X124549762Y-77592318D01*
X124549768Y-77592321D01*
X124549769Y-77592322D01*
X124722749Y-77663973D01*
X124840767Y-77687448D01*
X124906379Y-77700499D01*
X124906383Y-77700500D01*
X124906384Y-77700500D01*
X125093617Y-77700500D01*
X125093618Y-77700499D01*
X125277251Y-77663973D01*
X125277256Y-77663971D01*
X125278046Y-77663644D01*
X125278493Y-77663595D01*
X125283078Y-77662205D01*
X125283341Y-77663074D01*
X125347515Y-77656174D01*
X125409995Y-77687448D01*
X125445648Y-77747537D01*
X125449500Y-77778204D01*
X125449500Y-78036573D01*
X125429815Y-78103612D01*
X125377011Y-78149367D01*
X125317159Y-78158336D01*
X125317159Y-78159475D01*
X125309563Y-78159475D01*
X125309316Y-78159512D01*
X125309035Y-78159475D01*
X125309032Y-78159475D01*
X125150918Y-78159475D01*
X124998191Y-78200398D01*
X124998184Y-78200401D01*
X124861265Y-78279450D01*
X124861257Y-78279456D01*
X124749456Y-78391257D01*
X124749450Y-78391265D01*
X124670401Y-78528184D01*
X124670398Y-78528191D01*
X124629475Y-78680918D01*
X124629475Y-78839031D01*
X124670218Y-78991088D01*
X124668555Y-79060938D01*
X124629392Y-79118800D01*
X124597897Y-79137741D01*
X124549777Y-79157673D01*
X124549762Y-79157681D01*
X124394092Y-79261697D01*
X124394088Y-79261700D01*
X124261700Y-79394088D01*
X124261697Y-79394092D01*
X124157681Y-79549762D01*
X124157676Y-79549771D01*
X124086027Y-79722748D01*
X124086025Y-79722756D01*
X124049500Y-79906379D01*
X124049500Y-80093620D01*
X124086025Y-80277243D01*
X124086027Y-80277251D01*
X124157676Y-80450228D01*
X124157681Y-80450237D01*
X124261697Y-80605907D01*
X124261700Y-80605911D01*
X124394088Y-80738299D01*
X124394092Y-80738302D01*
X124549762Y-80842318D01*
X124549768Y-80842321D01*
X124549769Y-80842322D01*
X124722749Y-80913973D01*
X124862596Y-80941790D01*
X124906379Y-80950499D01*
X124906383Y-80950500D01*
X124906384Y-80950500D01*
X125093617Y-80950500D01*
X125093618Y-80950499D01*
X125277251Y-80913973D01*
X125450231Y-80842322D01*
X125605908Y-80738302D01*
X125738302Y-80605908D01*
X125842322Y-80450231D01*
X125913973Y-80277251D01*
X125950500Y-80093616D01*
X125950500Y-79906384D01*
X125913973Y-79722749D01*
X125842322Y-79549769D01*
X125842320Y-79549766D01*
X125842318Y-79549762D01*
X125738302Y-79394092D01*
X125738299Y-79394088D01*
X125679379Y-79335168D01*
X125675040Y-79327222D01*
X125667792Y-79321796D01*
X125658557Y-79297036D01*
X125645894Y-79273845D01*
X125646539Y-79264814D01*
X125643376Y-79256331D01*
X125648992Y-79230512D01*
X125650878Y-79204153D01*
X125656697Y-79195097D01*
X125658229Y-79188058D01*
X125679374Y-79159811D01*
X125707297Y-79131888D01*
X125768619Y-79098406D01*
X125838311Y-79103392D01*
X125882656Y-79131892D01*
X125931284Y-79180520D01*
X125931286Y-79180521D01*
X125931290Y-79180524D01*
X126048316Y-79248088D01*
X126068216Y-79259577D01*
X126220943Y-79300500D01*
X126220945Y-79300500D01*
X126379055Y-79300500D01*
X126379057Y-79300500D01*
X126531784Y-79259577D01*
X126668716Y-79180520D01*
X126780520Y-79068716D01*
X126859577Y-78931784D01*
X126900500Y-78779057D01*
X126900500Y-78620943D01*
X126859577Y-78468216D01*
X126815150Y-78391265D01*
X126780524Y-78331290D01*
X126780518Y-78331282D01*
X126668717Y-78219481D01*
X126668709Y-78219475D01*
X126531790Y-78140426D01*
X126531786Y-78140424D01*
X126531784Y-78140423D01*
X126379057Y-78099500D01*
X126220943Y-78099500D01*
X126220939Y-78099500D01*
X126214002Y-78101359D01*
X126202003Y-78101072D01*
X126190761Y-78105266D01*
X126167723Y-78100254D01*
X126144152Y-78099692D01*
X126132507Y-78092593D01*
X126122488Y-78090414D01*
X126094234Y-78069263D01*
X126086819Y-78061848D01*
X126053334Y-78000525D01*
X126050500Y-77974167D01*
X126050500Y-77460439D01*
X126030020Y-77384009D01*
X126030017Y-77384004D01*
X125990464Y-77315495D01*
X125990458Y-77315487D01*
X125910539Y-77235568D01*
X125877054Y-77174245D01*
X125882038Y-77104553D01*
X125883659Y-77100434D01*
X125913973Y-77027251D01*
X125950500Y-76843616D01*
X125950500Y-76656384D01*
X125913973Y-76472749D01*
X125842322Y-76299769D01*
X125842319Y-76299764D01*
X125842318Y-76299762D01*
X125738302Y-76144092D01*
X125738299Y-76144088D01*
X125605911Y-76011700D01*
X125605907Y-76011697D01*
X125450237Y-75907681D01*
X125450228Y-75907676D01*
X125277251Y-75836027D01*
X125277243Y-75836025D01*
X125087641Y-75798311D01*
X125088068Y-75796162D01*
X125032422Y-75773682D01*
X124992072Y-75716641D01*
X124988967Y-75646840D01*
X124989575Y-75644468D01*
X125020500Y-75529057D01*
X125020500Y-75370943D01*
X125015106Y-75350812D01*
X125016769Y-75280965D01*
X125055931Y-75223102D01*
X125110690Y-75197104D01*
X125153477Y-75188592D01*
X125277251Y-75163973D01*
X125450231Y-75092322D01*
X125605908Y-74988302D01*
X125738302Y-74855908D01*
X125842322Y-74700231D01*
X125913973Y-74527251D01*
X125933062Y-74431282D01*
X125935119Y-74420943D01*
X127149500Y-74420943D01*
X127149500Y-74579057D01*
X127183985Y-74707755D01*
X127190423Y-74731783D01*
X127190426Y-74731790D01*
X127269475Y-74868709D01*
X127269481Y-74868717D01*
X127381284Y-74980520D01*
X127387499Y-74984108D01*
X127435715Y-75034675D01*
X127449500Y-75091496D01*
X127449500Y-75389562D01*
X127457313Y-75418719D01*
X127469979Y-75465991D01*
X127494988Y-75509305D01*
X127494989Y-75509309D01*
X127494990Y-75509309D01*
X127506389Y-75529054D01*
X127509539Y-75534509D01*
X127509541Y-75534512D01*
X128083181Y-76108152D01*
X128116666Y-76169475D01*
X128119500Y-76195833D01*
X128119500Y-80692058D01*
X128099815Y-80759097D01*
X128047011Y-80804852D01*
X128027595Y-80811832D01*
X127958220Y-80830421D01*
X127958209Y-80830426D01*
X127821290Y-80909475D01*
X127821282Y-80909481D01*
X127709481Y-81021282D01*
X127709475Y-81021290D01*
X127630426Y-81158209D01*
X127630423Y-81158216D01*
X127589500Y-81310943D01*
X127589500Y-81469057D01*
X127628965Y-81616340D01*
X127630423Y-81621783D01*
X127630426Y-81621790D01*
X127709475Y-81758709D01*
X127709481Y-81758717D01*
X127821284Y-81870520D01*
X127838567Y-81880498D01*
X127886783Y-81931065D01*
X127900007Y-81999672D01*
X127874039Y-82064537D01*
X127838575Y-82095269D01*
X127831290Y-82099475D01*
X127831282Y-82099481D01*
X127719481Y-82211282D01*
X127719475Y-82211290D01*
X127640426Y-82348209D01*
X127640423Y-82348216D01*
X127599500Y-82500943D01*
X127599500Y-82659056D01*
X127640423Y-82811783D01*
X127640426Y-82811790D01*
X127719475Y-82948709D01*
X127719479Y-82948714D01*
X127719480Y-82948716D01*
X127831284Y-83060520D01*
X127831286Y-83060521D01*
X127831290Y-83060524D01*
X127909897Y-83105907D01*
X127968216Y-83139577D01*
X128120943Y-83180500D01*
X128120945Y-83180500D01*
X128279055Y-83180500D01*
X128279057Y-83180500D01*
X128431784Y-83139577D01*
X128568716Y-83060520D01*
X128680520Y-82948716D01*
X128759577Y-82811784D01*
X128800500Y-82659057D01*
X128800500Y-82500943D01*
X128798642Y-82494008D01*
X128800303Y-82424161D01*
X128830733Y-82374236D01*
X129190460Y-82014511D01*
X129230021Y-81945989D01*
X129250500Y-81869562D01*
X129250500Y-75418718D01*
X129250499Y-75418717D01*
X129250240Y-75416746D01*
X129250500Y-75412776D01*
X129250500Y-75410590D01*
X129250643Y-75410590D01*
X129253402Y-75368463D01*
X129280500Y-75267337D01*
X129280500Y-75109223D01*
X129239577Y-74956496D01*
X129224335Y-74930095D01*
X129160524Y-74819570D01*
X129160518Y-74819562D01*
X129061899Y-74720943D01*
X131789500Y-74720943D01*
X131789500Y-74879057D01*
X131818772Y-74988299D01*
X131830423Y-75031783D01*
X131830426Y-75031790D01*
X131909475Y-75168709D01*
X131909479Y-75168714D01*
X131909480Y-75168716D01*
X132021284Y-75280520D01*
X132021286Y-75280521D01*
X132021290Y-75280524D01*
X132158209Y-75359573D01*
X132158216Y-75359577D01*
X132310943Y-75400500D01*
X132310945Y-75400500D01*
X132469055Y-75400500D01*
X132469057Y-75400500D01*
X132621784Y-75359577D01*
X132758716Y-75280520D01*
X132844454Y-75194781D01*
X132905773Y-75161299D01*
X132975465Y-75166283D01*
X133019813Y-75194784D01*
X134089460Y-76264431D01*
X134122945Y-76325754D01*
X134117961Y-76395446D01*
X134116341Y-76399563D01*
X134086028Y-76472748D01*
X134086026Y-76472752D01*
X134086024Y-76472756D01*
X134049500Y-76656379D01*
X134049500Y-76843620D01*
X134086025Y-77027243D01*
X134086027Y-77027251D01*
X134157676Y-77200228D01*
X134157681Y-77200237D01*
X134261697Y-77355907D01*
X134261700Y-77355911D01*
X134394088Y-77488299D01*
X134394092Y-77488302D01*
X134549762Y-77592318D01*
X134549768Y-77592321D01*
X134549769Y-77592322D01*
X134722749Y-77663973D01*
X134840767Y-77687448D01*
X134906379Y-77700499D01*
X134906383Y-77700500D01*
X134906384Y-77700500D01*
X135093617Y-77700500D01*
X135093618Y-77700499D01*
X135277251Y-77663973D01*
X135450231Y-77592322D01*
X135605908Y-77488302D01*
X135738302Y-77355908D01*
X135842322Y-77200231D01*
X135913973Y-77027251D01*
X135950500Y-76843616D01*
X135950500Y-76656384D01*
X135913973Y-76472749D01*
X135842322Y-76299769D01*
X135842319Y-76299764D01*
X135842318Y-76299762D01*
X135738302Y-76144092D01*
X135738299Y-76144088D01*
X135605911Y-76011700D01*
X135605907Y-76011697D01*
X135450237Y-75907681D01*
X135450228Y-75907676D01*
X135277251Y-75836027D01*
X135277243Y-75836025D01*
X135093620Y-75799500D01*
X135093616Y-75799500D01*
X134906384Y-75799500D01*
X134906379Y-75799500D01*
X134722756Y-75836024D01*
X134722752Y-75836026D01*
X134722750Y-75836026D01*
X134722749Y-75836027D01*
X134714461Y-75839460D01*
X134649563Y-75866341D01*
X134580094Y-75873808D01*
X134517615Y-75842533D01*
X134514431Y-75839460D01*
X133234513Y-74559542D01*
X133234511Y-74559540D01*
X133217951Y-74549979D01*
X133165991Y-74519980D01*
X133165990Y-74519979D01*
X133140513Y-74513152D01*
X133089562Y-74499500D01*
X133089560Y-74499500D01*
X132981496Y-74499500D01*
X132914457Y-74479815D01*
X132874108Y-74437499D01*
X132870520Y-74431284D01*
X132758717Y-74319481D01*
X132758709Y-74319475D01*
X132621790Y-74240426D01*
X132621786Y-74240424D01*
X132621784Y-74240423D01*
X132469057Y-74199500D01*
X132310943Y-74199500D01*
X132158216Y-74240423D01*
X132158209Y-74240426D01*
X132021290Y-74319475D01*
X132021282Y-74319481D01*
X131909481Y-74431282D01*
X131909475Y-74431290D01*
X131830426Y-74568209D01*
X131830423Y-74568216D01*
X131789500Y-74720943D01*
X129061899Y-74720943D01*
X129048717Y-74707761D01*
X129048709Y-74707755D01*
X128911790Y-74628706D01*
X128911786Y-74628704D01*
X128911784Y-74628703D01*
X128759057Y-74587780D01*
X128600943Y-74587780D01*
X128506593Y-74613061D01*
X128436743Y-74611398D01*
X128378881Y-74572235D01*
X128351377Y-74508007D01*
X128350500Y-74493286D01*
X128350500Y-74420945D01*
X128350500Y-74420943D01*
X128309577Y-74268216D01*
X128269904Y-74199500D01*
X128230524Y-74131290D01*
X128230518Y-74131282D01*
X128118717Y-74019481D01*
X128118709Y-74019475D01*
X127981790Y-73940426D01*
X127981786Y-73940424D01*
X127981784Y-73940423D01*
X127829057Y-73899500D01*
X127670943Y-73899500D01*
X127518216Y-73940423D01*
X127518209Y-73940426D01*
X127381290Y-74019475D01*
X127381282Y-74019481D01*
X127269481Y-74131282D01*
X127269475Y-74131290D01*
X127190426Y-74268209D01*
X127190423Y-74268216D01*
X127149500Y-74420943D01*
X125935119Y-74420943D01*
X125941542Y-74388654D01*
X125941547Y-74388626D01*
X125950499Y-74343620D01*
X125950500Y-74343616D01*
X125950500Y-74156384D01*
X125913973Y-73972749D01*
X125842322Y-73799769D01*
X125842321Y-73799768D01*
X125842318Y-73799762D01*
X125738302Y-73644092D01*
X125738299Y-73644088D01*
X125605911Y-73511700D01*
X125605907Y-73511697D01*
X125450237Y-73407681D01*
X125450228Y-73407676D01*
X125277251Y-73336027D01*
X125277243Y-73336025D01*
X125093620Y-73299500D01*
X125093616Y-73299500D01*
X124906384Y-73299500D01*
X124906379Y-73299500D01*
X124722756Y-73336025D01*
X124722748Y-73336027D01*
X124549771Y-73407676D01*
X124549762Y-73407681D01*
X124394092Y-73511697D01*
X124394088Y-73511700D01*
X124261700Y-73644088D01*
X124261697Y-73644092D01*
X124157681Y-73799762D01*
X124157676Y-73799771D01*
X124086027Y-73972748D01*
X124086025Y-73972756D01*
X124049500Y-74156379D01*
X124049500Y-74343620D01*
X124086025Y-74527243D01*
X124086027Y-74527251D01*
X124133065Y-74640811D01*
X124135150Y-74656860D01*
X124141088Y-74669576D01*
X124139808Y-74692715D01*
X124141387Y-74704869D01*
X124140204Y-74713620D01*
X124139979Y-74714011D01*
X124119500Y-74790438D01*
X124119500Y-74866842D01*
X124118383Y-74875109D01*
X124107401Y-74899704D01*
X124099815Y-74925543D01*
X124092939Y-74932099D01*
X124089899Y-74938909D01*
X124076810Y-74947477D01*
X124057501Y-74965890D01*
X124051290Y-74969475D01*
X124051281Y-74969482D01*
X123939481Y-75081282D01*
X123939475Y-75081290D01*
X123860426Y-75218209D01*
X123860423Y-75218216D01*
X123819500Y-75370943D01*
X120500500Y-75370943D01*
X120500500Y-71910943D01*
X131759500Y-71910943D01*
X131759500Y-72069056D01*
X131800423Y-72221783D01*
X131800426Y-72221790D01*
X131879475Y-72358709D01*
X131879479Y-72358714D01*
X131879480Y-72358716D01*
X131991284Y-72470520D01*
X131991286Y-72470521D01*
X131991290Y-72470524D01*
X132128209Y-72549573D01*
X132128216Y-72549577D01*
X132280943Y-72590500D01*
X132280945Y-72590500D01*
X132439055Y-72590500D01*
X132439057Y-72590500D01*
X132591784Y-72549577D01*
X132688687Y-72493630D01*
X132756585Y-72477158D01*
X132822612Y-72500010D01*
X132838366Y-72513337D01*
X134089460Y-73764431D01*
X134122945Y-73825754D01*
X134117961Y-73895446D01*
X134116341Y-73899563D01*
X134086028Y-73972748D01*
X134086026Y-73972752D01*
X134086024Y-73972756D01*
X134049500Y-74156379D01*
X134049500Y-74343620D01*
X134086025Y-74527243D01*
X134086027Y-74527251D01*
X134157676Y-74700228D01*
X134157681Y-74700237D01*
X134261697Y-74855907D01*
X134261700Y-74855911D01*
X134394088Y-74988299D01*
X134394092Y-74988302D01*
X134549762Y-75092318D01*
X134549768Y-75092321D01*
X134549769Y-75092322D01*
X134722749Y-75163973D01*
X134877648Y-75194784D01*
X134906379Y-75200499D01*
X134906383Y-75200500D01*
X134906384Y-75200500D01*
X135093617Y-75200500D01*
X135093618Y-75200499D01*
X135277251Y-75163973D01*
X135450231Y-75092322D01*
X135605908Y-74988302D01*
X135738302Y-74855908D01*
X135842322Y-74700231D01*
X135913973Y-74527251D01*
X135950500Y-74343616D01*
X135950500Y-74156384D01*
X135913973Y-73972749D01*
X135842322Y-73799769D01*
X135842321Y-73799768D01*
X135842318Y-73799762D01*
X135738302Y-73644092D01*
X135738299Y-73644088D01*
X135605911Y-73511700D01*
X135605907Y-73511697D01*
X135450237Y-73407681D01*
X135450228Y-73407676D01*
X135277251Y-73336027D01*
X135277243Y-73336025D01*
X135093620Y-73299500D01*
X135093616Y-73299500D01*
X134906384Y-73299500D01*
X134906379Y-73299500D01*
X134722756Y-73336024D01*
X134722752Y-73336026D01*
X134722750Y-73336026D01*
X134722749Y-73336027D01*
X134714461Y-73339460D01*
X134649563Y-73366341D01*
X134580094Y-73373808D01*
X134517615Y-73342533D01*
X134514431Y-73339460D01*
X132918764Y-71743793D01*
X132919438Y-71743118D01*
X132894327Y-71714480D01*
X132840524Y-71621290D01*
X132840518Y-71621282D01*
X132728717Y-71509481D01*
X132728709Y-71509475D01*
X132591790Y-71430426D01*
X132591786Y-71430424D01*
X132591784Y-71430423D01*
X132439057Y-71389500D01*
X132280943Y-71389500D01*
X132128216Y-71430423D01*
X132128209Y-71430426D01*
X131991290Y-71509475D01*
X131991282Y-71509481D01*
X131879481Y-71621282D01*
X131879475Y-71621290D01*
X131800426Y-71758209D01*
X131800423Y-71758216D01*
X131759500Y-71910943D01*
X120500500Y-71910943D01*
X120500500Y-70460943D01*
X133629500Y-70460943D01*
X133629500Y-70619057D01*
X133644168Y-70673796D01*
X133670423Y-70771783D01*
X133670426Y-70771790D01*
X133749475Y-70908709D01*
X133749479Y-70908714D01*
X133749480Y-70908716D01*
X133861284Y-71020520D01*
X133900317Y-71043055D01*
X133944730Y-71089633D01*
X133945915Y-71088950D01*
X133949979Y-71095989D01*
X133977751Y-71144092D01*
X133989540Y-71164511D01*
X133989542Y-71164513D01*
X134089460Y-71264431D01*
X134122945Y-71325754D01*
X134117961Y-71395446D01*
X134116341Y-71399563D01*
X134098755Y-71442018D01*
X134086028Y-71472748D01*
X134086026Y-71472752D01*
X134086024Y-71472756D01*
X134049500Y-71656379D01*
X134049500Y-71843620D01*
X134086025Y-72027243D01*
X134086027Y-72027251D01*
X134157676Y-72200228D01*
X134157681Y-72200237D01*
X134261697Y-72355907D01*
X134261700Y-72355911D01*
X134394088Y-72488299D01*
X134394092Y-72488302D01*
X134549762Y-72592318D01*
X134549768Y-72592321D01*
X134549769Y-72592322D01*
X134722749Y-72663973D01*
X134906379Y-72700499D01*
X134906383Y-72700500D01*
X134906384Y-72700500D01*
X135093617Y-72700500D01*
X135093618Y-72700499D01*
X135277251Y-72663973D01*
X135450231Y-72592322D01*
X135605908Y-72488302D01*
X135738302Y-72355908D01*
X135842322Y-72200231D01*
X135913973Y-72027251D01*
X135950500Y-71843616D01*
X135950500Y-71656384D01*
X135913973Y-71472749D01*
X135842322Y-71299769D01*
X135842321Y-71299768D01*
X135842318Y-71299762D01*
X135738302Y-71144092D01*
X135738299Y-71144088D01*
X135605911Y-71011700D01*
X135605907Y-71011697D01*
X135450237Y-70907681D01*
X135450228Y-70907676D01*
X135277251Y-70836027D01*
X135277243Y-70836025D01*
X135093620Y-70799500D01*
X135093616Y-70799500D01*
X134943750Y-70799500D01*
X134876711Y-70779815D01*
X134830956Y-70727011D01*
X134821012Y-70657853D01*
X134823972Y-70643417D01*
X134830500Y-70619057D01*
X134830500Y-70460943D01*
X134789577Y-70308216D01*
X134749780Y-70239285D01*
X134710524Y-70171290D01*
X134710518Y-70171282D01*
X134598717Y-70059481D01*
X134598709Y-70059475D01*
X134461790Y-69980426D01*
X134461786Y-69980424D01*
X134461784Y-69980423D01*
X134309057Y-69939500D01*
X134150943Y-69939500D01*
X133998216Y-69980423D01*
X133998209Y-69980426D01*
X133861290Y-70059475D01*
X133861282Y-70059481D01*
X133749481Y-70171282D01*
X133749475Y-70171290D01*
X133670426Y-70308209D01*
X133670423Y-70308216D01*
X133629500Y-70460943D01*
X120500500Y-70460943D01*
X120500500Y-69168995D01*
X125299499Y-69168995D01*
X125326418Y-69304322D01*
X125326421Y-69304332D01*
X125379221Y-69431804D01*
X125379228Y-69431817D01*
X125455885Y-69546541D01*
X125455888Y-69546545D01*
X125553454Y-69644111D01*
X125553458Y-69644114D01*
X125668182Y-69720771D01*
X125668195Y-69720778D01*
X125795667Y-69773578D01*
X125795672Y-69773580D01*
X125795676Y-69773580D01*
X125795677Y-69773581D01*
X125931004Y-69800500D01*
X125931007Y-69800500D01*
X126068995Y-69800500D01*
X126168508Y-69780705D01*
X126204328Y-69773580D01*
X126331811Y-69720775D01*
X126446542Y-69644114D01*
X126544114Y-69546542D01*
X126559309Y-69523799D01*
X126571465Y-69505609D01*
X126625077Y-69460804D01*
X126674567Y-69450500D01*
X129346142Y-69450500D01*
X129346144Y-69450500D01*
X129435288Y-69426614D01*
X129515212Y-69380470D01*
X130708863Y-68186819D01*
X130770186Y-68153334D01*
X130796544Y-68150500D01*
X135453456Y-68150500D01*
X135520495Y-68170185D01*
X135541137Y-68186819D01*
X136213181Y-68858863D01*
X136246666Y-68920186D01*
X136249500Y-68946544D01*
X136249500Y-69564969D01*
X136229815Y-69632008D01*
X136194393Y-69668070D01*
X136171843Y-69683137D01*
X136074275Y-69780705D01*
X136074272Y-69780709D01*
X135997615Y-69895433D01*
X135997608Y-69895446D01*
X135944808Y-70022918D01*
X135944805Y-70022928D01*
X135917887Y-70158255D01*
X135917887Y-70158258D01*
X135917887Y-70296244D01*
X135917887Y-70296246D01*
X135917886Y-70296246D01*
X135944805Y-70431573D01*
X135944808Y-70431583D01*
X135997608Y-70559055D01*
X135997615Y-70559068D01*
X136074272Y-70673792D01*
X136074275Y-70673796D01*
X136171841Y-70771362D01*
X136171845Y-70771365D01*
X136286569Y-70848022D01*
X136286582Y-70848029D01*
X136414054Y-70900829D01*
X136414059Y-70900831D01*
X136549394Y-70927751D01*
X136550691Y-70928009D01*
X136612602Y-70960394D01*
X136647176Y-71021109D01*
X136650500Y-71049626D01*
X136650500Y-79108128D01*
X136630815Y-79175167D01*
X136595392Y-79211229D01*
X136573460Y-79225883D01*
X136573454Y-79225888D01*
X136475888Y-79323454D01*
X136475885Y-79323458D01*
X136399228Y-79438182D01*
X136399221Y-79438195D01*
X136344089Y-79571299D01*
X136341860Y-79570376D01*
X136309413Y-79619915D01*
X136245607Y-79648387D01*
X136229027Y-79649500D01*
X135966486Y-79649500D01*
X135899447Y-79629815D01*
X135853692Y-79577011D01*
X135851938Y-79572986D01*
X135842322Y-79549769D01*
X135842320Y-79549766D01*
X135842318Y-79549762D01*
X135738302Y-79394092D01*
X135738299Y-79394088D01*
X135605911Y-79261700D01*
X135605907Y-79261697D01*
X135450237Y-79157681D01*
X135450228Y-79157676D01*
X135277251Y-79086027D01*
X135277243Y-79086025D01*
X135093620Y-79049500D01*
X135093616Y-79049500D01*
X134906384Y-79049500D01*
X134906379Y-79049500D01*
X134722756Y-79086025D01*
X134722748Y-79086027D01*
X134549771Y-79157676D01*
X134549762Y-79157681D01*
X134394092Y-79261697D01*
X134394088Y-79261700D01*
X134261700Y-79394088D01*
X134261697Y-79394092D01*
X134157681Y-79549762D01*
X134157676Y-79549771D01*
X134086027Y-79722748D01*
X134086025Y-79722756D01*
X134049500Y-79906379D01*
X134049500Y-80093620D01*
X134086025Y-80277243D01*
X134086027Y-80277251D01*
X134157676Y-80450228D01*
X134157681Y-80450237D01*
X134261697Y-80605907D01*
X134261700Y-80605911D01*
X134394088Y-80738299D01*
X134394092Y-80738302D01*
X134549762Y-80842318D01*
X134549768Y-80842321D01*
X134549769Y-80842322D01*
X134722749Y-80913973D01*
X134862596Y-80941790D01*
X134906379Y-80950499D01*
X134906383Y-80950500D01*
X134906384Y-80950500D01*
X135093617Y-80950500D01*
X135093618Y-80950499D01*
X135277251Y-80913973D01*
X135450231Y-80842322D01*
X135605908Y-80738302D01*
X135738302Y-80605908D01*
X135842322Y-80450231D01*
X135851925Y-80427046D01*
X135895765Y-80372644D01*
X135962059Y-80350579D01*
X135966486Y-80350500D01*
X136590298Y-80350500D01*
X136657337Y-80370185D01*
X136659188Y-80371398D01*
X136688186Y-80390774D01*
X136688190Y-80390776D01*
X136775760Y-80427048D01*
X136815672Y-80443580D01*
X136815676Y-80443580D01*
X136815677Y-80443581D01*
X136951004Y-80470500D01*
X136951007Y-80470500D01*
X137088995Y-80470500D01*
X137190906Y-80450228D01*
X137224328Y-80443580D01*
X137351811Y-80390775D01*
X137466542Y-80314114D01*
X137564114Y-80216542D01*
X137640775Y-80101811D01*
X137644170Y-80093616D01*
X137693578Y-79974332D01*
X137693580Y-79974328D01*
X137720500Y-79838993D01*
X137720500Y-79701007D01*
X137720500Y-79701004D01*
X137693581Y-79565677D01*
X137693580Y-79565676D01*
X137693580Y-79565672D01*
X137686990Y-79549762D01*
X137640778Y-79438195D01*
X137640771Y-79438182D01*
X137572398Y-79335855D01*
X137551520Y-79269178D01*
X137551500Y-79266964D01*
X137551500Y-70650557D01*
X137551500Y-70650555D01*
X137520799Y-70535978D01*
X137520799Y-70535977D01*
X137520799Y-70535976D01*
X137461492Y-70433253D01*
X137461488Y-70433248D01*
X137355206Y-70326966D01*
X137321721Y-70265643D01*
X137318887Y-70239285D01*
X137318887Y-70158255D01*
X137291968Y-70022928D01*
X137291967Y-70022927D01*
X137291967Y-70022923D01*
X137274363Y-69980423D01*
X137239165Y-69895446D01*
X137239158Y-69895433D01*
X137162501Y-69780709D01*
X137162498Y-69780705D01*
X137064932Y-69683139D01*
X137064926Y-69683134D01*
X137005608Y-69643498D01*
X136960803Y-69589885D01*
X136950500Y-69540397D01*
X136950500Y-68703858D01*
X136950500Y-68703856D01*
X136926614Y-68614712D01*
X136880470Y-68534788D01*
X135865212Y-67519530D01*
X135865211Y-67519529D01*
X135865208Y-67519527D01*
X135785290Y-67473387D01*
X135785289Y-67473386D01*
X135785288Y-67473386D01*
X135696144Y-67449500D01*
X130553856Y-67449500D01*
X130464712Y-67473386D01*
X130464709Y-67473387D01*
X130384791Y-67519527D01*
X130384786Y-67519531D01*
X129191137Y-68713181D01*
X129129814Y-68746666D01*
X129103456Y-68749500D01*
X126674567Y-68749500D01*
X126607528Y-68729815D01*
X126571465Y-68694391D01*
X126544114Y-68653458D01*
X126544111Y-68653454D01*
X126446545Y-68555888D01*
X126446541Y-68555885D01*
X126331817Y-68479228D01*
X126331804Y-68479221D01*
X126204332Y-68426421D01*
X126204322Y-68426418D01*
X126068995Y-68399500D01*
X126068993Y-68399500D01*
X125931007Y-68399500D01*
X125931005Y-68399500D01*
X125795677Y-68426418D01*
X125795667Y-68426421D01*
X125668195Y-68479221D01*
X125668182Y-68479228D01*
X125553458Y-68555885D01*
X125553454Y-68555888D01*
X125455888Y-68653454D01*
X125455885Y-68653458D01*
X125379228Y-68768182D01*
X125379221Y-68768195D01*
X125326421Y-68895667D01*
X125326418Y-68895677D01*
X125299500Y-69031004D01*
X125299500Y-69031007D01*
X125299500Y-69168993D01*
X125299500Y-69168995D01*
X125299499Y-69168995D01*
X120500500Y-69168995D01*
X120500500Y-66406379D01*
X124049500Y-66406379D01*
X124049500Y-66593620D01*
X124086025Y-66777243D01*
X124086027Y-66777251D01*
X124157676Y-66950228D01*
X124157681Y-66950237D01*
X124261697Y-67105907D01*
X124261700Y-67105911D01*
X124394088Y-67238299D01*
X124394092Y-67238302D01*
X124549762Y-67342318D01*
X124549768Y-67342321D01*
X124549769Y-67342322D01*
X124722749Y-67413973D01*
X124901357Y-67449500D01*
X124906379Y-67450499D01*
X124906383Y-67450500D01*
X124906384Y-67450500D01*
X125093617Y-67450500D01*
X125093618Y-67450499D01*
X125277251Y-67413973D01*
X125450231Y-67342322D01*
X125605908Y-67238302D01*
X125738302Y-67105908D01*
X125842322Y-66950231D01*
X125913973Y-66777251D01*
X125950500Y-66593616D01*
X125950500Y-66406384D01*
X125913973Y-66222749D01*
X125883657Y-66149561D01*
X125881520Y-66129687D01*
X125874535Y-66110958D01*
X125877862Y-66095661D01*
X125876189Y-66080097D01*
X125885137Y-66062219D01*
X125889387Y-66042685D01*
X125906070Y-66020398D01*
X125907463Y-66017617D01*
X125910510Y-66014459D01*
X126006103Y-65918866D01*
X126031782Y-65899163D01*
X126098716Y-65860520D01*
X126210520Y-65748716D01*
X126289577Y-65611784D01*
X126330500Y-65459057D01*
X126330500Y-65300943D01*
X126289577Y-65148216D01*
X126289573Y-65148209D01*
X126210524Y-65011290D01*
X126210518Y-65011282D01*
X126098717Y-64899481D01*
X126098709Y-64899475D01*
X125961790Y-64820426D01*
X125961786Y-64820424D01*
X125961784Y-64820423D01*
X125809057Y-64779500D01*
X125650943Y-64779500D01*
X125498216Y-64820423D01*
X125498209Y-64820426D01*
X125361290Y-64899475D01*
X125361282Y-64899481D01*
X125249481Y-65011282D01*
X125249475Y-65011290D01*
X125170426Y-65148209D01*
X125170423Y-65148216D01*
X125129500Y-65300943D01*
X125129500Y-65425500D01*
X125109815Y-65492539D01*
X125057011Y-65538294D01*
X125005500Y-65549500D01*
X124906379Y-65549500D01*
X124722756Y-65586025D01*
X124722748Y-65586027D01*
X124549771Y-65657676D01*
X124549762Y-65657681D01*
X124394092Y-65761697D01*
X124394088Y-65761700D01*
X124261700Y-65894088D01*
X124261697Y-65894092D01*
X124157681Y-66049762D01*
X124157676Y-66049771D01*
X124086027Y-66222748D01*
X124086025Y-66222756D01*
X124049500Y-66406379D01*
X120500500Y-66406379D01*
X120500500Y-64374333D01*
X120520185Y-64307294D01*
X120572989Y-64261539D01*
X120642147Y-64251595D01*
X120671948Y-64259770D01*
X120798165Y-64312051D01*
X120798169Y-64312051D01*
X120798170Y-64312052D01*
X120991456Y-64350500D01*
X120991459Y-64350500D01*
X121188543Y-64350500D01*
X121318582Y-64324632D01*
X121381835Y-64312051D01*
X121563914Y-64236632D01*
X121727782Y-64127139D01*
X121867139Y-63987782D01*
X121923157Y-63903943D01*
X121980017Y-63818849D01*
X121981419Y-63819785D01*
X122024721Y-63775703D01*
X122085118Y-63760000D01*
X122634882Y-63760000D01*
X122701921Y-63779685D01*
G37*
%TD.AperFunction*%
%TD*%
M02*
