%TF.GenerationSoftware,KiCad,Pcbnew,9.0.2+1*%
%TF.CreationDate,2025-08-04T10:31:06+02:00*%
%TF.ProjectId,ts13_dev_kit,74733133-5f64-4657-965f-6b69742e6b69,rev?*%
%TF.SameCoordinates,Original*%
%TF.FileFunction,Soldermask,Bot*%
%TF.FilePolarity,Negative*%
%FSLAX46Y46*%
G04 Gerber Fmt 4.6, Leading zero omitted, Abs format (unit mm)*
G04 Created by KiCad (PCBNEW 9.0.2+1) date 2025-08-04 10:31:06*
%MOMM*%
%LPD*%
G01*
G04 APERTURE LIST*
%ADD10C,0.180000*%
%ADD11O,0.850000X2.250000*%
%ADD12C,1.600000*%
%ADD13C,1.500000*%
%ADD14C,2.200000*%
G04 APERTURE END LIST*
D10*
X133199999Y-50843782D02*
X132514285Y-50843782D01*
X132857142Y-52043782D02*
X132857142Y-50843782D01*
X132171427Y-51986640D02*
X131999999Y-52043782D01*
X131999999Y-52043782D02*
X131714284Y-52043782D01*
X131714284Y-52043782D02*
X131599999Y-51986640D01*
X131599999Y-51986640D02*
X131542856Y-51929497D01*
X131542856Y-51929497D02*
X131485713Y-51815211D01*
X131485713Y-51815211D02*
X131485713Y-51700925D01*
X131485713Y-51700925D02*
X131542856Y-51586640D01*
X131542856Y-51586640D02*
X131599999Y-51529497D01*
X131599999Y-51529497D02*
X131714284Y-51472354D01*
X131714284Y-51472354D02*
X131942856Y-51415211D01*
X131942856Y-51415211D02*
X132057141Y-51358068D01*
X132057141Y-51358068D02*
X132114284Y-51300925D01*
X132114284Y-51300925D02*
X132171427Y-51186640D01*
X132171427Y-51186640D02*
X132171427Y-51072354D01*
X132171427Y-51072354D02*
X132114284Y-50958068D01*
X132114284Y-50958068D02*
X132057141Y-50900925D01*
X132057141Y-50900925D02*
X131942856Y-50843782D01*
X131942856Y-50843782D02*
X131657141Y-50843782D01*
X131657141Y-50843782D02*
X131485713Y-50900925D01*
X130342856Y-52043782D02*
X131028570Y-52043782D01*
X130685713Y-52043782D02*
X130685713Y-50843782D01*
X130685713Y-50843782D02*
X130799999Y-51015211D01*
X130799999Y-51015211D02*
X130914284Y-51129497D01*
X130914284Y-51129497D02*
X131028570Y-51186640D01*
X129942856Y-50843782D02*
X129199999Y-50843782D01*
X129199999Y-50843782D02*
X129599999Y-51300925D01*
X129599999Y-51300925D02*
X129428570Y-51300925D01*
X129428570Y-51300925D02*
X129314285Y-51358068D01*
X129314285Y-51358068D02*
X129257142Y-51415211D01*
X129257142Y-51415211D02*
X129199999Y-51529497D01*
X129199999Y-51529497D02*
X129199999Y-51815211D01*
X129199999Y-51815211D02*
X129257142Y-51929497D01*
X129257142Y-51929497D02*
X129314285Y-51986640D01*
X129314285Y-51986640D02*
X129428570Y-52043782D01*
X129428570Y-52043782D02*
X129771427Y-52043782D01*
X129771427Y-52043782D02*
X129885713Y-51986640D01*
X129885713Y-51986640D02*
X129942856Y-51929497D01*
X128457142Y-50843782D02*
X128342856Y-50843782D01*
X128342856Y-50843782D02*
X128228570Y-50900925D01*
X128228570Y-50900925D02*
X128171428Y-50958068D01*
X128171428Y-50958068D02*
X128114285Y-51072354D01*
X128114285Y-51072354D02*
X128057142Y-51300925D01*
X128057142Y-51300925D02*
X128057142Y-51586640D01*
X128057142Y-51586640D02*
X128114285Y-51815211D01*
X128114285Y-51815211D02*
X128171428Y-51929497D01*
X128171428Y-51929497D02*
X128228570Y-51986640D01*
X128228570Y-51986640D02*
X128342856Y-52043782D01*
X128342856Y-52043782D02*
X128457142Y-52043782D01*
X128457142Y-52043782D02*
X128571428Y-51986640D01*
X128571428Y-51986640D02*
X128628570Y-51929497D01*
X128628570Y-51929497D02*
X128685713Y-51815211D01*
X128685713Y-51815211D02*
X128742856Y-51586640D01*
X128742856Y-51586640D02*
X128742856Y-51300925D01*
X128742856Y-51300925D02*
X128685713Y-51072354D01*
X128685713Y-51072354D02*
X128628570Y-50958068D01*
X128628570Y-50958068D02*
X128571428Y-50900925D01*
X128571428Y-50900925D02*
X128457142Y-50843782D01*
X127657142Y-50843782D02*
X126914285Y-50843782D01*
X126914285Y-50843782D02*
X127314285Y-51300925D01*
X127314285Y-51300925D02*
X127142856Y-51300925D01*
X127142856Y-51300925D02*
X127028571Y-51358068D01*
X127028571Y-51358068D02*
X126971428Y-51415211D01*
X126971428Y-51415211D02*
X126914285Y-51529497D01*
X126914285Y-51529497D02*
X126914285Y-51815211D01*
X126914285Y-51815211D02*
X126971428Y-51929497D01*
X126971428Y-51929497D02*
X127028571Y-51986640D01*
X127028571Y-51986640D02*
X127142856Y-52043782D01*
X127142856Y-52043782D02*
X127485713Y-52043782D01*
X127485713Y-52043782D02*
X127599999Y-51986640D01*
X127599999Y-51986640D02*
X127657142Y-51929497D01*
D11*
%TO.C,J1*%
X125700000Y-94600000D03*
X134300000Y-94600000D03*
%TD*%
D12*
%TO.C,PAD3*%
X124900000Y-61000000D03*
%TD*%
D13*
%TO.C,H4*%
X136330000Y-63350000D03*
%TD*%
%TO.C,H1*%
X121090000Y-63350000D03*
%TD*%
D12*
%TO.C,PAD4*%
X135060000Y-61000000D03*
%TD*%
%TO.C,PAD6*%
X129980000Y-61000000D03*
%TD*%
%TO.C,PAD2*%
X137600000Y-61000000D03*
%TD*%
D13*
%TO.C,H6*%
X133790000Y-63350000D03*
%TD*%
%TO.C,H3*%
X126170000Y-63350000D03*
%TD*%
D12*
%TO.C,PAD1*%
X122360000Y-61000000D03*
%TD*%
D13*
%TO.C,H2*%
X123630000Y-63350000D03*
%TD*%
%TO.C,H5*%
X138870000Y-63350000D03*
%TD*%
D12*
%TO.C,PAD7*%
X127440000Y-61000000D03*
%TD*%
D13*
%TO.C,H8*%
X131250000Y-63350000D03*
%TD*%
D14*
%TO.C,H9*%
X122000000Y-55500000D03*
%TD*%
D12*
%TO.C,PAD5*%
X132520000Y-61000000D03*
%TD*%
D13*
%TO.C,H7*%
X128710000Y-63350000D03*
%TD*%
%TO.C,TP7*%
X125000000Y-74250000D03*
%TD*%
%TO.C,TP2*%
X135000000Y-76750000D03*
%TD*%
%TO.C,TP5*%
X135000000Y-71750000D03*
%TD*%
%TO.C,TP6*%
X135000000Y-69250000D03*
%TD*%
%TO.C,TP10*%
X125000000Y-66500000D03*
%TD*%
%TO.C,TP12*%
X125000000Y-80000000D03*
%TD*%
%TO.C,TP8*%
X125000000Y-76750000D03*
%TD*%
%TO.C,TP11*%
X125000000Y-82500000D03*
%TD*%
%TO.C,TP9*%
X125000000Y-71750000D03*
%TD*%
%TO.C,TP3*%
X134500000Y-89500000D03*
%TD*%
%TO.C,TP4*%
X135000000Y-74250000D03*
%TD*%
%TO.C,TP1*%
X135000000Y-80000000D03*
%TD*%
M02*
