M48
; DRILL file {KiCad 9.0.2+1} date 2025-08-04T10:31:02+0200
; FORMAT={-:-/ absolute / inch / decimal}
; #@! TF.CreationDate,2025-08-04T10:31:02+02:00
; #@! TF.GenerationSoftware,Kicad,Pcbnew,9.0.2+1
; #@! TF.FileFunction,Plated,1,2,PTH
FMAT,2
INCH
; #@! TA.AperFunction,Plated,PTH,ViaDrill
T1C0.0157
; #@! TA.AperFunction,Plated,PTH,ComponentDrill
T2C0.0177
; #@! TA.AperFunction,Plated,PTH,ViaDrill
T3C0.0236
; #@! TA.AperFunction,Plated,PTH,ComponentDrill
T4C0.0394
%
G90
G05
T1
X4.7606Y-2.7854
X4.7606Y-3.0906
X4.7638Y-2.0768
X4.7638Y-2.2638
X4.7638Y-2.5591
X4.7772Y-3.2051
X4.8189Y-3.0709
X4.8327Y-2.0079
X4.8984Y-2.9705
X4.9155Y-2.7726
X4.9177Y-3.3524
X4.9189Y-3.6555
X4.9303Y-3.1008
X4.95Y-2.574
X4.9724Y-2.2657
X4.9724Y-3.0984
X4.9768Y-2.6063
X4.9925Y-3.1776
X5.0098Y-2.8937
X5.0197Y-3.0118
X5.0236Y-3.5394
X5.0295Y-2.9331
X5.0394Y-2.8346
X5.0394Y-3.3465
X5.0469Y-3.2043
X5.0472Y-3.2512
X5.0661Y-2.9602
X5.0787Y-3.5335
X5.0886Y-2.5972
X5.1083Y-3.3445
X5.1181Y-3.622
X5.122Y-2.0197
X5.1575Y-2.0768
X5.1575Y-2.1228
X5.1622Y-2.8232
X5.187Y-3.0413
X5.187Y-3.2283
X5.1894Y-3.5366
X5.1937Y-2.2488
X5.211Y-2.8343
X5.2122Y-2.9449
X5.2126Y-2.9028
X5.213Y-2.9886
X5.2209Y-2.3024
X5.2567Y-3.5476
X5.2846Y-2.7772
X5.3146Y-3.4346
X5.3161Y-3.6445
X5.3386Y-2.0315
X5.3642Y-3.0906
X5.378Y-2.2756
X5.3858Y-2.0709
X5.4331Y-2.1949
X5.4531Y-3.2035
X5.4626Y-2.8543
X5.4685Y-2.0591
X5.4724Y-2.2638
X5.4724Y-2.5591
X5.4724Y-2.6827
T3
X4.9606Y-2.7205
X5.3787Y-2.7649
X5.3945Y-3.1406
T4
X4.8173Y-2.4016
X4.9173Y-2.4016
X5.0173Y-2.4016
X5.1173Y-2.4016
X5.2173Y-2.4016
X5.3173Y-2.4016
X5.4173Y-2.4016
T2
G00X4.9488Y-3.6978
M15
G01X4.9488Y-3.751
M16
G05
G00X5.2874Y-3.6978
M15
G01X5.2874Y-3.751
M16
G05
M30
