%TF.GenerationSoftware,KiCad,Pcbnew,9.0.2+1*%
%TF.CreationDate,2025-08-04T10:31:06+02:00*%
%TF.ProjectId,ts13_dev_kit,74733133-5f64-4657-965f-6b69742e6b69,rev?*%
%TF.SameCoordinates,Original*%
%TF.FileFunction,Legend,Top*%
%TF.FilePolarity,Positive*%
%FSLAX46Y46*%
G04 Gerber Fmt 4.6, Leading zero omitted, Abs format (unit mm)*
G04 Created by KiCad (PCBNEW 9.0.2+1) date 2025-08-04 10:31:06*
%MOMM*%
%LPD*%
G01*
G04 APERTURE LIST*
%ADD10C,0.150000*%
%ADD11C,0.180000*%
%ADD12C,0.200000*%
%ADD13C,0.120000*%
%ADD14C,0.000000*%
G04 APERTURE END LIST*
D10*
X129609485Y-90208019D02*
X135016138Y-90208019D01*
X135016138Y-92201365D01*
X129609485Y-92201365D01*
X129609485Y-90208019D01*
D11*
X130440640Y-66310150D02*
X130488259Y-66181579D01*
X130488259Y-66181579D02*
X130488259Y-65967293D01*
X130488259Y-65967293D02*
X130440640Y-65881579D01*
X130440640Y-65881579D02*
X130393020Y-65838721D01*
X130393020Y-65838721D02*
X130297782Y-65795864D01*
X130297782Y-65795864D02*
X130202544Y-65795864D01*
X130202544Y-65795864D02*
X130107306Y-65838721D01*
X130107306Y-65838721D02*
X130059687Y-65881579D01*
X130059687Y-65881579D02*
X130012068Y-65967293D01*
X130012068Y-65967293D02*
X129964449Y-66138721D01*
X129964449Y-66138721D02*
X129916830Y-66224436D01*
X129916830Y-66224436D02*
X129869211Y-66267293D01*
X129869211Y-66267293D02*
X129773973Y-66310150D01*
X129773973Y-66310150D02*
X129678735Y-66310150D01*
X129678735Y-66310150D02*
X129583497Y-66267293D01*
X129583497Y-66267293D02*
X129535878Y-66224436D01*
X129535878Y-66224436D02*
X129488259Y-66138721D01*
X129488259Y-66138721D02*
X129488259Y-65924436D01*
X129488259Y-65924436D02*
X129535878Y-65795864D01*
X130488259Y-65410150D02*
X129488259Y-65410150D01*
X129488259Y-65410150D02*
X129488259Y-65195864D01*
X129488259Y-65195864D02*
X129535878Y-65067293D01*
X129535878Y-65067293D02*
X129631116Y-64981578D01*
X129631116Y-64981578D02*
X129726354Y-64938721D01*
X129726354Y-64938721D02*
X129916830Y-64895864D01*
X129916830Y-64895864D02*
X130059687Y-64895864D01*
X130059687Y-64895864D02*
X130250163Y-64938721D01*
X130250163Y-64938721D02*
X130345401Y-64981578D01*
X130345401Y-64981578D02*
X130440640Y-65067293D01*
X130440640Y-65067293D02*
X130488259Y-65195864D01*
X130488259Y-65195864D02*
X130488259Y-65410150D01*
X129488259Y-64338721D02*
X129488259Y-64167293D01*
X129488259Y-64167293D02*
X129535878Y-64081578D01*
X129535878Y-64081578D02*
X129631116Y-63995864D01*
X129631116Y-63995864D02*
X129821592Y-63953007D01*
X129821592Y-63953007D02*
X130154925Y-63953007D01*
X130154925Y-63953007D02*
X130345401Y-63995864D01*
X130345401Y-63995864D02*
X130440640Y-64081578D01*
X130440640Y-64081578D02*
X130488259Y-64167293D01*
X130488259Y-64167293D02*
X130488259Y-64338721D01*
X130488259Y-64338721D02*
X130440640Y-64424436D01*
X130440640Y-64424436D02*
X130345401Y-64510150D01*
X130345401Y-64510150D02*
X130154925Y-64553007D01*
X130154925Y-64553007D02*
X129821592Y-64553007D01*
X129821592Y-64553007D02*
X129631116Y-64510150D01*
X129631116Y-64510150D02*
X129535878Y-64424436D01*
X129535878Y-64424436D02*
X129488259Y-64338721D01*
D12*
X121842219Y-66382707D02*
X122842219Y-66082707D01*
X122842219Y-66082707D02*
X121842219Y-65782707D01*
X122746980Y-64968421D02*
X122794600Y-65011278D01*
X122794600Y-65011278D02*
X122842219Y-65139850D01*
X122842219Y-65139850D02*
X122842219Y-65225564D01*
X122842219Y-65225564D02*
X122794600Y-65354135D01*
X122794600Y-65354135D02*
X122699361Y-65439850D01*
X122699361Y-65439850D02*
X122604123Y-65482707D01*
X122604123Y-65482707D02*
X122413647Y-65525564D01*
X122413647Y-65525564D02*
X122270790Y-65525564D01*
X122270790Y-65525564D02*
X122080314Y-65482707D01*
X122080314Y-65482707D02*
X121985076Y-65439850D01*
X121985076Y-65439850D02*
X121889838Y-65354135D01*
X121889838Y-65354135D02*
X121842219Y-65225564D01*
X121842219Y-65225564D02*
X121842219Y-65139850D01*
X121842219Y-65139850D02*
X121889838Y-65011278D01*
X121889838Y-65011278D02*
X121937457Y-64968421D01*
X122746980Y-64068421D02*
X122794600Y-64111278D01*
X122794600Y-64111278D02*
X122842219Y-64239850D01*
X122842219Y-64239850D02*
X122842219Y-64325564D01*
X122842219Y-64325564D02*
X122794600Y-64454135D01*
X122794600Y-64454135D02*
X122699361Y-64539850D01*
X122699361Y-64539850D02*
X122604123Y-64582707D01*
X122604123Y-64582707D02*
X122413647Y-64625564D01*
X122413647Y-64625564D02*
X122270790Y-64625564D01*
X122270790Y-64625564D02*
X122080314Y-64582707D01*
X122080314Y-64582707D02*
X121985076Y-64539850D01*
X121985076Y-64539850D02*
X121889838Y-64454135D01*
X121889838Y-64454135D02*
X121842219Y-64325564D01*
X121842219Y-64325564D02*
X121842219Y-64239850D01*
X121842219Y-64239850D02*
X121889838Y-64111278D01*
X121889838Y-64111278D02*
X121937457Y-64068421D01*
X124434838Y-65782707D02*
X124387219Y-65868422D01*
X124387219Y-65868422D02*
X124387219Y-65996993D01*
X124387219Y-65996993D02*
X124434838Y-66125564D01*
X124434838Y-66125564D02*
X124530076Y-66211279D01*
X124530076Y-66211279D02*
X124625314Y-66254136D01*
X124625314Y-66254136D02*
X124815790Y-66296993D01*
X124815790Y-66296993D02*
X124958647Y-66296993D01*
X124958647Y-66296993D02*
X125149123Y-66254136D01*
X125149123Y-66254136D02*
X125244361Y-66211279D01*
X125244361Y-66211279D02*
X125339600Y-66125564D01*
X125339600Y-66125564D02*
X125387219Y-65996993D01*
X125387219Y-65996993D02*
X125387219Y-65911279D01*
X125387219Y-65911279D02*
X125339600Y-65782707D01*
X125339600Y-65782707D02*
X125291980Y-65739850D01*
X125291980Y-65739850D02*
X124958647Y-65739850D01*
X124958647Y-65739850D02*
X124958647Y-65911279D01*
X125387219Y-65354136D02*
X124387219Y-65354136D01*
X124387219Y-65354136D02*
X124387219Y-65011279D01*
X124387219Y-65011279D02*
X124434838Y-64925564D01*
X124434838Y-64925564D02*
X124482457Y-64882707D01*
X124482457Y-64882707D02*
X124577695Y-64839850D01*
X124577695Y-64839850D02*
X124720552Y-64839850D01*
X124720552Y-64839850D02*
X124815790Y-64882707D01*
X124815790Y-64882707D02*
X124863409Y-64925564D01*
X124863409Y-64925564D02*
X124911028Y-65011279D01*
X124911028Y-65011279D02*
X124911028Y-65354136D01*
X124387219Y-64282707D02*
X124387219Y-64111279D01*
X124387219Y-64111279D02*
X124434838Y-64025564D01*
X124434838Y-64025564D02*
X124530076Y-63939850D01*
X124530076Y-63939850D02*
X124720552Y-63896993D01*
X124720552Y-63896993D02*
X125053885Y-63896993D01*
X125053885Y-63896993D02*
X125244361Y-63939850D01*
X125244361Y-63939850D02*
X125339600Y-64025564D01*
X125339600Y-64025564D02*
X125387219Y-64111279D01*
X125387219Y-64111279D02*
X125387219Y-64282707D01*
X125387219Y-64282707D02*
X125339600Y-64368422D01*
X125339600Y-64368422D02*
X125244361Y-64454136D01*
X125244361Y-64454136D02*
X125053885Y-64496993D01*
X125053885Y-64496993D02*
X124720552Y-64496993D01*
X124720552Y-64496993D02*
X124530076Y-64454136D01*
X124530076Y-64454136D02*
X124434838Y-64368422D01*
X124434838Y-64368422D02*
X124387219Y-64282707D01*
D11*
X135413020Y-65753007D02*
X135460640Y-65795864D01*
X135460640Y-65795864D02*
X135508259Y-65924436D01*
X135508259Y-65924436D02*
X135508259Y-66010150D01*
X135508259Y-66010150D02*
X135460640Y-66138721D01*
X135460640Y-66138721D02*
X135365401Y-66224436D01*
X135365401Y-66224436D02*
X135270163Y-66267293D01*
X135270163Y-66267293D02*
X135079687Y-66310150D01*
X135079687Y-66310150D02*
X134936830Y-66310150D01*
X134936830Y-66310150D02*
X134746354Y-66267293D01*
X134746354Y-66267293D02*
X134651116Y-66224436D01*
X134651116Y-66224436D02*
X134555878Y-66138721D01*
X134555878Y-66138721D02*
X134508259Y-66010150D01*
X134508259Y-66010150D02*
X134508259Y-65924436D01*
X134508259Y-65924436D02*
X134555878Y-65795864D01*
X134555878Y-65795864D02*
X134603497Y-65753007D01*
X135460640Y-65410150D02*
X135508259Y-65281579D01*
X135508259Y-65281579D02*
X135508259Y-65067293D01*
X135508259Y-65067293D02*
X135460640Y-64981579D01*
X135460640Y-64981579D02*
X135413020Y-64938721D01*
X135413020Y-64938721D02*
X135317782Y-64895864D01*
X135317782Y-64895864D02*
X135222544Y-64895864D01*
X135222544Y-64895864D02*
X135127306Y-64938721D01*
X135127306Y-64938721D02*
X135079687Y-64981579D01*
X135079687Y-64981579D02*
X135032068Y-65067293D01*
X135032068Y-65067293D02*
X134984449Y-65238721D01*
X134984449Y-65238721D02*
X134936830Y-65324436D01*
X134936830Y-65324436D02*
X134889211Y-65367293D01*
X134889211Y-65367293D02*
X134793973Y-65410150D01*
X134793973Y-65410150D02*
X134698735Y-65410150D01*
X134698735Y-65410150D02*
X134603497Y-65367293D01*
X134603497Y-65367293D02*
X134555878Y-65324436D01*
X134555878Y-65324436D02*
X134508259Y-65238721D01*
X134508259Y-65238721D02*
X134508259Y-65024436D01*
X134508259Y-65024436D02*
X134555878Y-64895864D01*
X135508259Y-64510150D02*
X134508259Y-64510150D01*
X134508259Y-64510150D02*
X135508259Y-63995864D01*
X135508259Y-63995864D02*
X134508259Y-63995864D01*
D12*
X132959600Y-66296993D02*
X133007219Y-66168422D01*
X133007219Y-66168422D02*
X133007219Y-65954136D01*
X133007219Y-65954136D02*
X132959600Y-65868422D01*
X132959600Y-65868422D02*
X132911980Y-65825564D01*
X132911980Y-65825564D02*
X132816742Y-65782707D01*
X132816742Y-65782707D02*
X132721504Y-65782707D01*
X132721504Y-65782707D02*
X132626266Y-65825564D01*
X132626266Y-65825564D02*
X132578647Y-65868422D01*
X132578647Y-65868422D02*
X132531028Y-65954136D01*
X132531028Y-65954136D02*
X132483409Y-66125564D01*
X132483409Y-66125564D02*
X132435790Y-66211279D01*
X132435790Y-66211279D02*
X132388171Y-66254136D01*
X132388171Y-66254136D02*
X132292933Y-66296993D01*
X132292933Y-66296993D02*
X132197695Y-66296993D01*
X132197695Y-66296993D02*
X132102457Y-66254136D01*
X132102457Y-66254136D02*
X132054838Y-66211279D01*
X132054838Y-66211279D02*
X132007219Y-66125564D01*
X132007219Y-66125564D02*
X132007219Y-65911279D01*
X132007219Y-65911279D02*
X132054838Y-65782707D01*
X132911980Y-64882707D02*
X132959600Y-64925564D01*
X132959600Y-64925564D02*
X133007219Y-65054136D01*
X133007219Y-65054136D02*
X133007219Y-65139850D01*
X133007219Y-65139850D02*
X132959600Y-65268421D01*
X132959600Y-65268421D02*
X132864361Y-65354136D01*
X132864361Y-65354136D02*
X132769123Y-65396993D01*
X132769123Y-65396993D02*
X132578647Y-65439850D01*
X132578647Y-65439850D02*
X132435790Y-65439850D01*
X132435790Y-65439850D02*
X132245314Y-65396993D01*
X132245314Y-65396993D02*
X132150076Y-65354136D01*
X132150076Y-65354136D02*
X132054838Y-65268421D01*
X132054838Y-65268421D02*
X132007219Y-65139850D01*
X132007219Y-65139850D02*
X132007219Y-65054136D01*
X132007219Y-65054136D02*
X132054838Y-64925564D01*
X132054838Y-64925564D02*
X132102457Y-64882707D01*
X133007219Y-64496993D02*
X132007219Y-64496993D01*
X133007219Y-63982707D02*
X132435790Y-64368421D01*
X132007219Y-63982707D02*
X132578647Y-64496993D01*
D11*
X127930640Y-66310150D02*
X127978259Y-66181579D01*
X127978259Y-66181579D02*
X127978259Y-65967293D01*
X127978259Y-65967293D02*
X127930640Y-65881579D01*
X127930640Y-65881579D02*
X127883020Y-65838721D01*
X127883020Y-65838721D02*
X127787782Y-65795864D01*
X127787782Y-65795864D02*
X127692544Y-65795864D01*
X127692544Y-65795864D02*
X127597306Y-65838721D01*
X127597306Y-65838721D02*
X127549687Y-65881579D01*
X127549687Y-65881579D02*
X127502068Y-65967293D01*
X127502068Y-65967293D02*
X127454449Y-66138721D01*
X127454449Y-66138721D02*
X127406830Y-66224436D01*
X127406830Y-66224436D02*
X127359211Y-66267293D01*
X127359211Y-66267293D02*
X127263973Y-66310150D01*
X127263973Y-66310150D02*
X127168735Y-66310150D01*
X127168735Y-66310150D02*
X127073497Y-66267293D01*
X127073497Y-66267293D02*
X127025878Y-66224436D01*
X127025878Y-66224436D02*
X126978259Y-66138721D01*
X126978259Y-66138721D02*
X126978259Y-65924436D01*
X126978259Y-65924436D02*
X127025878Y-65795864D01*
X127978259Y-65410150D02*
X126978259Y-65410150D01*
X126978259Y-65410150D02*
X126978259Y-65195864D01*
X126978259Y-65195864D02*
X127025878Y-65067293D01*
X127025878Y-65067293D02*
X127121116Y-64981578D01*
X127121116Y-64981578D02*
X127216354Y-64938721D01*
X127216354Y-64938721D02*
X127406830Y-64895864D01*
X127406830Y-64895864D02*
X127549687Y-64895864D01*
X127549687Y-64895864D02*
X127740163Y-64938721D01*
X127740163Y-64938721D02*
X127835401Y-64981578D01*
X127835401Y-64981578D02*
X127930640Y-65067293D01*
X127930640Y-65067293D02*
X127978259Y-65195864D01*
X127978259Y-65195864D02*
X127978259Y-65410150D01*
X127978259Y-64510150D02*
X126978259Y-64510150D01*
D12*
X137119838Y-65782707D02*
X137072219Y-65868422D01*
X137072219Y-65868422D02*
X137072219Y-65996993D01*
X137072219Y-65996993D02*
X137119838Y-66125564D01*
X137119838Y-66125564D02*
X137215076Y-66211279D01*
X137215076Y-66211279D02*
X137310314Y-66254136D01*
X137310314Y-66254136D02*
X137500790Y-66296993D01*
X137500790Y-66296993D02*
X137643647Y-66296993D01*
X137643647Y-66296993D02*
X137834123Y-66254136D01*
X137834123Y-66254136D02*
X137929361Y-66211279D01*
X137929361Y-66211279D02*
X138024600Y-66125564D01*
X138024600Y-66125564D02*
X138072219Y-65996993D01*
X138072219Y-65996993D02*
X138072219Y-65911279D01*
X138072219Y-65911279D02*
X138024600Y-65782707D01*
X138024600Y-65782707D02*
X137976980Y-65739850D01*
X137976980Y-65739850D02*
X137643647Y-65739850D01*
X137643647Y-65739850D02*
X137643647Y-65911279D01*
X138072219Y-65354136D02*
X137072219Y-65354136D01*
X137072219Y-65354136D02*
X138072219Y-64839850D01*
X138072219Y-64839850D02*
X137072219Y-64839850D01*
X138072219Y-64411279D02*
X137072219Y-64411279D01*
X137072219Y-64411279D02*
X137072219Y-64196993D01*
X137072219Y-64196993D02*
X137119838Y-64068422D01*
X137119838Y-64068422D02*
X137215076Y-63982707D01*
X137215076Y-63982707D02*
X137310314Y-63939850D01*
X137310314Y-63939850D02*
X137500790Y-63896993D01*
X137500790Y-63896993D02*
X137643647Y-63896993D01*
X137643647Y-63896993D02*
X137834123Y-63939850D01*
X137834123Y-63939850D02*
X137929361Y-63982707D01*
X137929361Y-63982707D02*
X138024600Y-64068422D01*
X138024600Y-64068422D02*
X138072219Y-64196993D01*
X138072219Y-64196993D02*
X138072219Y-64411279D01*
D10*
X120634524Y-72310181D02*
X120634524Y-71510181D01*
X120634524Y-71510181D02*
X120825000Y-71510181D01*
X120825000Y-71510181D02*
X120939286Y-71548276D01*
X120939286Y-71548276D02*
X121015476Y-71624466D01*
X121015476Y-71624466D02*
X121053571Y-71700657D01*
X121053571Y-71700657D02*
X121091667Y-71853038D01*
X121091667Y-71853038D02*
X121091667Y-71967324D01*
X121091667Y-71967324D02*
X121053571Y-72119705D01*
X121053571Y-72119705D02*
X121015476Y-72195895D01*
X121015476Y-72195895D02*
X120939286Y-72272086D01*
X120939286Y-72272086D02*
X120825000Y-72310181D01*
X120825000Y-72310181D02*
X120634524Y-72310181D01*
X121396428Y-71586371D02*
X121434524Y-71548276D01*
X121434524Y-71548276D02*
X121510714Y-71510181D01*
X121510714Y-71510181D02*
X121701190Y-71510181D01*
X121701190Y-71510181D02*
X121777381Y-71548276D01*
X121777381Y-71548276D02*
X121815476Y-71586371D01*
X121815476Y-71586371D02*
X121853571Y-71662562D01*
X121853571Y-71662562D02*
X121853571Y-71738752D01*
X121853571Y-71738752D02*
X121815476Y-71853038D01*
X121815476Y-71853038D02*
X121358333Y-72310181D01*
X121358333Y-72310181D02*
X121853571Y-72310181D01*
X136629808Y-59036594D02*
X136582189Y-59084214D01*
X136582189Y-59084214D02*
X136439332Y-59131833D01*
X136439332Y-59131833D02*
X136344094Y-59131833D01*
X136344094Y-59131833D02*
X136201237Y-59084214D01*
X136201237Y-59084214D02*
X136105999Y-58988975D01*
X136105999Y-58988975D02*
X136058380Y-58893737D01*
X136058380Y-58893737D02*
X136010761Y-58703261D01*
X136010761Y-58703261D02*
X136010761Y-58560404D01*
X136010761Y-58560404D02*
X136058380Y-58369928D01*
X136058380Y-58369928D02*
X136105999Y-58274690D01*
X136105999Y-58274690D02*
X136201237Y-58179452D01*
X136201237Y-58179452D02*
X136344094Y-58131833D01*
X136344094Y-58131833D02*
X136439332Y-58131833D01*
X136439332Y-58131833D02*
X136582189Y-58179452D01*
X136582189Y-58179452D02*
X136629808Y-58227071D01*
X137010761Y-58227071D02*
X137058380Y-58179452D01*
X137058380Y-58179452D02*
X137153618Y-58131833D01*
X137153618Y-58131833D02*
X137391713Y-58131833D01*
X137391713Y-58131833D02*
X137486951Y-58179452D01*
X137486951Y-58179452D02*
X137534570Y-58227071D01*
X137534570Y-58227071D02*
X137582189Y-58322309D01*
X137582189Y-58322309D02*
X137582189Y-58417547D01*
X137582189Y-58417547D02*
X137534570Y-58560404D01*
X137534570Y-58560404D02*
X136963142Y-59131833D01*
X136963142Y-59131833D02*
X137582189Y-59131833D01*
X125786666Y-92314819D02*
X125786666Y-93029104D01*
X125786666Y-93029104D02*
X125739047Y-93171961D01*
X125739047Y-93171961D02*
X125643809Y-93267200D01*
X125643809Y-93267200D02*
X125500952Y-93314819D01*
X125500952Y-93314819D02*
X125405714Y-93314819D01*
X126786666Y-93314819D02*
X126215238Y-93314819D01*
X126500952Y-93314819D02*
X126500952Y-92314819D01*
X126500952Y-92314819D02*
X126405714Y-92457676D01*
X126405714Y-92457676D02*
X126310476Y-92552914D01*
X126310476Y-92552914D02*
X126215238Y-92600533D01*
X133143810Y-85184819D02*
X133143810Y-84184819D01*
X134191428Y-85089580D02*
X134143809Y-85137200D01*
X134143809Y-85137200D02*
X134000952Y-85184819D01*
X134000952Y-85184819D02*
X133905714Y-85184819D01*
X133905714Y-85184819D02*
X133762857Y-85137200D01*
X133762857Y-85137200D02*
X133667619Y-85041961D01*
X133667619Y-85041961D02*
X133620000Y-84946723D01*
X133620000Y-84946723D02*
X133572381Y-84756247D01*
X133572381Y-84756247D02*
X133572381Y-84613390D01*
X133572381Y-84613390D02*
X133620000Y-84422914D01*
X133620000Y-84422914D02*
X133667619Y-84327676D01*
X133667619Y-84327676D02*
X133762857Y-84232438D01*
X133762857Y-84232438D02*
X133905714Y-84184819D01*
X133905714Y-84184819D02*
X134000952Y-84184819D01*
X134000952Y-84184819D02*
X134143809Y-84232438D01*
X134143809Y-84232438D02*
X134191428Y-84280057D01*
X134524762Y-84184819D02*
X135143809Y-84184819D01*
X135143809Y-84184819D02*
X134810476Y-84565771D01*
X134810476Y-84565771D02*
X134953333Y-84565771D01*
X134953333Y-84565771D02*
X135048571Y-84613390D01*
X135048571Y-84613390D02*
X135096190Y-84661009D01*
X135096190Y-84661009D02*
X135143809Y-84756247D01*
X135143809Y-84756247D02*
X135143809Y-84994342D01*
X135143809Y-84994342D02*
X135096190Y-85089580D01*
X135096190Y-85089580D02*
X135048571Y-85137200D01*
X135048571Y-85137200D02*
X134953333Y-85184819D01*
X134953333Y-85184819D02*
X134667619Y-85184819D01*
X134667619Y-85184819D02*
X134572381Y-85137200D01*
X134572381Y-85137200D02*
X134524762Y-85089580D01*
X128666667Y-85257200D02*
X128809524Y-85304819D01*
X128809524Y-85304819D02*
X129047619Y-85304819D01*
X129047619Y-85304819D02*
X129142857Y-85257200D01*
X129142857Y-85257200D02*
X129190476Y-85209580D01*
X129190476Y-85209580D02*
X129238095Y-85114342D01*
X129238095Y-85114342D02*
X129238095Y-85019104D01*
X129238095Y-85019104D02*
X129190476Y-84923866D01*
X129190476Y-84923866D02*
X129142857Y-84876247D01*
X129142857Y-84876247D02*
X129047619Y-84828628D01*
X129047619Y-84828628D02*
X128857143Y-84781009D01*
X128857143Y-84781009D02*
X128761905Y-84733390D01*
X128761905Y-84733390D02*
X128714286Y-84685771D01*
X128714286Y-84685771D02*
X128666667Y-84590533D01*
X128666667Y-84590533D02*
X128666667Y-84495295D01*
X128666667Y-84495295D02*
X128714286Y-84400057D01*
X128714286Y-84400057D02*
X128761905Y-84352438D01*
X128761905Y-84352438D02*
X128857143Y-84304819D01*
X128857143Y-84304819D02*
X129095238Y-84304819D01*
X129095238Y-84304819D02*
X129238095Y-84352438D01*
X129571429Y-84304819D02*
X129809524Y-85304819D01*
X129809524Y-85304819D02*
X130000000Y-84590533D01*
X130000000Y-84590533D02*
X130190476Y-85304819D01*
X130190476Y-85304819D02*
X130428572Y-84304819D01*
X131333333Y-85304819D02*
X130761905Y-85304819D01*
X131047619Y-85304819D02*
X131047619Y-84304819D01*
X131047619Y-84304819D02*
X130952381Y-84447676D01*
X130952381Y-84447676D02*
X130857143Y-84542914D01*
X130857143Y-84542914D02*
X130761905Y-84590533D01*
X131544819Y-56346189D02*
X130544819Y-56346189D01*
X131449580Y-55298571D02*
X131497200Y-55346190D01*
X131497200Y-55346190D02*
X131544819Y-55489047D01*
X131544819Y-55489047D02*
X131544819Y-55584285D01*
X131544819Y-55584285D02*
X131497200Y-55727142D01*
X131497200Y-55727142D02*
X131401961Y-55822380D01*
X131401961Y-55822380D02*
X131306723Y-55869999D01*
X131306723Y-55869999D02*
X131116247Y-55917618D01*
X131116247Y-55917618D02*
X130973390Y-55917618D01*
X130973390Y-55917618D02*
X130782914Y-55869999D01*
X130782914Y-55869999D02*
X130687676Y-55822380D01*
X130687676Y-55822380D02*
X130592438Y-55727142D01*
X130592438Y-55727142D02*
X130544819Y-55584285D01*
X130544819Y-55584285D02*
X130544819Y-55489047D01*
X130544819Y-55489047D02*
X130592438Y-55346190D01*
X130592438Y-55346190D02*
X130640057Y-55298571D01*
X131544819Y-54346190D02*
X131544819Y-54917618D01*
X131544819Y-54631904D02*
X130544819Y-54631904D01*
X130544819Y-54631904D02*
X130687676Y-54727142D01*
X130687676Y-54727142D02*
X130782914Y-54822380D01*
X130782914Y-54822380D02*
X130830533Y-54917618D01*
X135454819Y-73309523D02*
X136454819Y-72642857D01*
X135454819Y-72642857D02*
X136454819Y-73309523D01*
X136454819Y-71738095D02*
X136454819Y-72309523D01*
X136454819Y-72023809D02*
X135454819Y-72023809D01*
X135454819Y-72023809D02*
X135597676Y-72119047D01*
X135597676Y-72119047D02*
X135692914Y-72214285D01*
X135692914Y-72214285D02*
X135740533Y-72309523D01*
X120534524Y-75637295D02*
X120534524Y-74837295D01*
X120534524Y-74837295D02*
X120725000Y-74837295D01*
X120725000Y-74837295D02*
X120839286Y-74875390D01*
X120839286Y-74875390D02*
X120915476Y-74951580D01*
X120915476Y-74951580D02*
X120953571Y-75027771D01*
X120953571Y-75027771D02*
X120991667Y-75180152D01*
X120991667Y-75180152D02*
X120991667Y-75294438D01*
X120991667Y-75294438D02*
X120953571Y-75446819D01*
X120953571Y-75446819D02*
X120915476Y-75523009D01*
X120915476Y-75523009D02*
X120839286Y-75599200D01*
X120839286Y-75599200D02*
X120725000Y-75637295D01*
X120725000Y-75637295D02*
X120534524Y-75637295D01*
X121753571Y-75637295D02*
X121296428Y-75637295D01*
X121525000Y-75637295D02*
X121525000Y-74837295D01*
X121525000Y-74837295D02*
X121448809Y-74951580D01*
X121448809Y-74951580D02*
X121372619Y-75027771D01*
X121372619Y-75027771D02*
X121296428Y-75065866D01*
X135582923Y-51991346D02*
X135535304Y-52038966D01*
X135535304Y-52038966D02*
X135392447Y-52086585D01*
X135392447Y-52086585D02*
X135297209Y-52086585D01*
X135297209Y-52086585D02*
X135154352Y-52038966D01*
X135154352Y-52038966D02*
X135059114Y-51943727D01*
X135059114Y-51943727D02*
X135011495Y-51848489D01*
X135011495Y-51848489D02*
X134963876Y-51658013D01*
X134963876Y-51658013D02*
X134963876Y-51515156D01*
X134963876Y-51515156D02*
X135011495Y-51324680D01*
X135011495Y-51324680D02*
X135059114Y-51229442D01*
X135059114Y-51229442D02*
X135154352Y-51134204D01*
X135154352Y-51134204D02*
X135297209Y-51086585D01*
X135297209Y-51086585D02*
X135392447Y-51086585D01*
X135392447Y-51086585D02*
X135535304Y-51134204D01*
X135535304Y-51134204D02*
X135582923Y-51181823D01*
X136535304Y-52086585D02*
X135963876Y-52086585D01*
X136249590Y-52086585D02*
X136249590Y-51086585D01*
X136249590Y-51086585D02*
X136154352Y-51229442D01*
X136154352Y-51229442D02*
X136059114Y-51324680D01*
X136059114Y-51324680D02*
X135963876Y-51372299D01*
X137973780Y-56348648D02*
X137926161Y-56396268D01*
X137926161Y-56396268D02*
X137783304Y-56443887D01*
X137783304Y-56443887D02*
X137688066Y-56443887D01*
X137688066Y-56443887D02*
X137545209Y-56396268D01*
X137545209Y-56396268D02*
X137449971Y-56301029D01*
X137449971Y-56301029D02*
X137402352Y-56205791D01*
X137402352Y-56205791D02*
X137354733Y-56015315D01*
X137354733Y-56015315D02*
X137354733Y-55872458D01*
X137354733Y-55872458D02*
X137402352Y-55681982D01*
X137402352Y-55681982D02*
X137449971Y-55586744D01*
X137449971Y-55586744D02*
X137545209Y-55491506D01*
X137545209Y-55491506D02*
X137688066Y-55443887D01*
X137688066Y-55443887D02*
X137783304Y-55443887D01*
X137783304Y-55443887D02*
X137926161Y-55491506D01*
X137926161Y-55491506D02*
X137973780Y-55539125D01*
X138307114Y-55443887D02*
X138926161Y-55443887D01*
X138926161Y-55443887D02*
X138592828Y-55824839D01*
X138592828Y-55824839D02*
X138735685Y-55824839D01*
X138735685Y-55824839D02*
X138830923Y-55872458D01*
X138830923Y-55872458D02*
X138878542Y-55920077D01*
X138878542Y-55920077D02*
X138926161Y-56015315D01*
X138926161Y-56015315D02*
X138926161Y-56253410D01*
X138926161Y-56253410D02*
X138878542Y-56348648D01*
X138878542Y-56348648D02*
X138830923Y-56396268D01*
X138830923Y-56396268D02*
X138735685Y-56443887D01*
X138735685Y-56443887D02*
X138449971Y-56443887D01*
X138449971Y-56443887D02*
X138354733Y-56396268D01*
X138354733Y-56396268D02*
X138307114Y-56348648D01*
X124583810Y-79574819D02*
X124583810Y-78574819D01*
X125631428Y-79479580D02*
X125583809Y-79527200D01*
X125583809Y-79527200D02*
X125440952Y-79574819D01*
X125440952Y-79574819D02*
X125345714Y-79574819D01*
X125345714Y-79574819D02*
X125202857Y-79527200D01*
X125202857Y-79527200D02*
X125107619Y-79431961D01*
X125107619Y-79431961D02*
X125060000Y-79336723D01*
X125060000Y-79336723D02*
X125012381Y-79146247D01*
X125012381Y-79146247D02*
X125012381Y-79003390D01*
X125012381Y-79003390D02*
X125060000Y-78812914D01*
X125060000Y-78812914D02*
X125107619Y-78717676D01*
X125107619Y-78717676D02*
X125202857Y-78622438D01*
X125202857Y-78622438D02*
X125345714Y-78574819D01*
X125345714Y-78574819D02*
X125440952Y-78574819D01*
X125440952Y-78574819D02*
X125583809Y-78622438D01*
X125583809Y-78622438D02*
X125631428Y-78670057D01*
X126012381Y-78670057D02*
X126060000Y-78622438D01*
X126060000Y-78622438D02*
X126155238Y-78574819D01*
X126155238Y-78574819D02*
X126393333Y-78574819D01*
X126393333Y-78574819D02*
X126488571Y-78622438D01*
X126488571Y-78622438D02*
X126536190Y-78670057D01*
X126536190Y-78670057D02*
X126583809Y-78765295D01*
X126583809Y-78765295D02*
X126583809Y-78860533D01*
X126583809Y-78860533D02*
X126536190Y-79003390D01*
X126536190Y-79003390D02*
X125964762Y-79574819D01*
X125964762Y-79574819D02*
X126583809Y-79574819D01*
X130205957Y-91177070D02*
X129872624Y-91177070D01*
X129872624Y-91700880D02*
X129872624Y-90700880D01*
X129872624Y-90700880D02*
X130348814Y-90700880D01*
X131253576Y-91700880D02*
X130682148Y-91700880D01*
X130967862Y-91700880D02*
X130967862Y-90700880D01*
X130967862Y-90700880D02*
X130872624Y-90843737D01*
X130872624Y-90843737D02*
X130777386Y-90938975D01*
X130777386Y-90938975D02*
X130682148Y-90986594D01*
X125539524Y-89822295D02*
X125539524Y-89022295D01*
X125539524Y-89022295D02*
X125730000Y-89022295D01*
X125730000Y-89022295D02*
X125844286Y-89060390D01*
X125844286Y-89060390D02*
X125920476Y-89136580D01*
X125920476Y-89136580D02*
X125958571Y-89212771D01*
X125958571Y-89212771D02*
X125996667Y-89365152D01*
X125996667Y-89365152D02*
X125996667Y-89479438D01*
X125996667Y-89479438D02*
X125958571Y-89631819D01*
X125958571Y-89631819D02*
X125920476Y-89708009D01*
X125920476Y-89708009D02*
X125844286Y-89784200D01*
X125844286Y-89784200D02*
X125730000Y-89822295D01*
X125730000Y-89822295D02*
X125539524Y-89822295D01*
X126263333Y-89022295D02*
X126758571Y-89022295D01*
X126758571Y-89022295D02*
X126491905Y-89327057D01*
X126491905Y-89327057D02*
X126606190Y-89327057D01*
X126606190Y-89327057D02*
X126682381Y-89365152D01*
X126682381Y-89365152D02*
X126720476Y-89403247D01*
X126720476Y-89403247D02*
X126758571Y-89479438D01*
X126758571Y-89479438D02*
X126758571Y-89669914D01*
X126758571Y-89669914D02*
X126720476Y-89746104D01*
X126720476Y-89746104D02*
X126682381Y-89784200D01*
X126682381Y-89784200D02*
X126606190Y-89822295D01*
X126606190Y-89822295D02*
X126377619Y-89822295D01*
X126377619Y-89822295D02*
X126301428Y-89784200D01*
X126301428Y-89784200D02*
X126263333Y-89746104D01*
D13*
%TO.C,R14*%
X122746359Y-71520000D02*
X123053641Y-71520000D01*
X122746359Y-72280000D02*
X123053641Y-72280000D01*
%TO.C,D2*%
X121115000Y-72540000D02*
X121115000Y-74460000D01*
X121115000Y-74460000D02*
X123800000Y-74460000D01*
X123800000Y-72540000D02*
X121115000Y-72540000D01*
%TO.C,C2*%
X134359420Y-57990000D02*
X134640580Y-57990000D01*
X134359420Y-59010000D02*
X134640580Y-59010000D01*
%TO.C,C13*%
X125890000Y-67392164D02*
X125890000Y-67607836D01*
X126610000Y-67392164D02*
X126610000Y-67607836D01*
%TO.C,IC3*%
X132440000Y-87250000D02*
X132440000Y-86450000D01*
X132440000Y-87250000D02*
X132440000Y-88050000D01*
X135560000Y-87250000D02*
X135560000Y-86450000D01*
X135560000Y-87250000D02*
X135560000Y-88050000D01*
X135840000Y-86190000D02*
X135510000Y-85950000D01*
X135840000Y-85710000D01*
X135840000Y-86190000D01*
G36*
X135840000Y-86190000D02*
G01*
X135510000Y-85950000D01*
X135840000Y-85710000D01*
X135840000Y-86190000D01*
G37*
%TO.C,C14*%
X128238748Y-66765000D02*
X128761252Y-66765000D01*
X128238748Y-68235000D02*
X128761252Y-68235000D01*
%TO.C,R7*%
X134370000Y-67296359D02*
X134370000Y-67603641D01*
X135130000Y-67296359D02*
X135130000Y-67603641D01*
%TO.C,R3*%
X131370000Y-67296359D02*
X131370000Y-67603641D01*
X132130000Y-67296359D02*
X132130000Y-67603641D01*
%TO.C,PAD3*%
X125800000Y-61000000D02*
G75*
G02*
X124000000Y-61000000I-900000J0D01*
G01*
X124000000Y-61000000D02*
G75*
G02*
X125800000Y-61000000I900000J0D01*
G01*
%TO.C,R1*%
X137346359Y-69630000D02*
X137653641Y-69630000D01*
X137346359Y-68870000D02*
X137653641Y-68870000D01*
%TO.C,PAD4*%
X135960000Y-61000000D02*
G75*
G02*
X134160000Y-61000000I-900000J0D01*
G01*
X134160000Y-61000000D02*
G75*
G02*
X135960000Y-61000000I900000J0D01*
G01*
%TO.C,SW1*%
X126940000Y-80440000D02*
X133060000Y-80440000D01*
X126940000Y-84060000D02*
X126940000Y-80440000D01*
X133060000Y-80440000D02*
X133060000Y-84060000D01*
X133060000Y-84060000D02*
X126940000Y-84060000D01*
%TO.C,PAD6*%
X130880000Y-61000000D02*
G75*
G02*
X129080000Y-61000000I-900000J0D01*
G01*
X129080000Y-61000000D02*
G75*
G02*
X130880000Y-61000000I900000J0D01*
G01*
%TO.C,C9*%
X135107836Y-78890000D02*
X134892164Y-78890000D01*
X135107836Y-79610000D02*
X134892164Y-79610000D01*
%TO.C,IC1*%
X132390000Y-53240000D02*
X132390000Y-53130000D01*
X132390000Y-57110000D02*
X132390000Y-56760000D01*
X132740000Y-57110000D02*
X132390000Y-57110000D01*
X136260000Y-52890000D02*
X136610000Y-52890000D01*
X136260000Y-57110000D02*
X136610000Y-57110000D01*
X136610000Y-52890000D02*
X136610000Y-53240000D01*
X136610000Y-57110000D02*
X136610000Y-56760000D01*
X132390000Y-52890000D02*
X132150000Y-52560000D01*
X132630000Y-52560000D01*
X132390000Y-52890000D01*
G36*
X132390000Y-52890000D02*
G01*
X132150000Y-52560000D01*
X132630000Y-52560000D01*
X132390000Y-52890000D01*
G37*
%TO.C,X1*%
X135790000Y-77560000D02*
X139210000Y-77560000D01*
X139210000Y-77560000D02*
X139210000Y-73440000D01*
%TO.C,C5*%
X131390000Y-88392164D02*
X131390000Y-88607836D01*
X132110000Y-88392164D02*
X132110000Y-88607836D01*
%TO.C,D1*%
X123800000Y-75840000D02*
X121115000Y-75840000D01*
X121115000Y-75840000D02*
X121115000Y-77760000D01*
X121115000Y-77760000D02*
X123800000Y-77760000D01*
%TO.C,R13*%
X122746359Y-74820000D02*
X123053641Y-74820000D01*
X122746359Y-75580000D02*
X123053641Y-75580000D01*
%TO.C,C1*%
X133640580Y-50990000D02*
X133359420Y-50990000D01*
X133640580Y-52010000D02*
X133359420Y-52010000D01*
%TO.C,PAD2*%
X138500000Y-61000000D02*
G75*
G02*
X136700000Y-61000000I-900000J0D01*
G01*
X136700000Y-61000000D02*
G75*
G02*
X138500000Y-61000000I900000J0D01*
G01*
%TO.C,C3*%
X137490000Y-54140580D02*
X137490000Y-53859420D01*
X138510000Y-54140580D02*
X138510000Y-53859420D01*
%TO.C,C11*%
X137607836Y-78140000D02*
X137392164Y-78140000D01*
X137607836Y-78860000D02*
X137392164Y-78860000D01*
%TO.C,IC2*%
X126390000Y-70890000D02*
X126390000Y-71340000D01*
X126390000Y-78110000D02*
X126390000Y-77660000D01*
X126840000Y-70890000D02*
X126390000Y-70890000D01*
X126840000Y-78110000D02*
X126390000Y-78110000D01*
X133160000Y-70890000D02*
X133610000Y-70890000D01*
X133160000Y-78110000D02*
X133610000Y-78110000D01*
X133610000Y-70890000D02*
X133610000Y-71340000D01*
X133610000Y-78110000D02*
X133610000Y-77660000D01*
X134540000Y-78130000D02*
X133860000Y-78130000D01*
X134200000Y-77660000D01*
X134540000Y-78130000D01*
G36*
X134540000Y-78130000D02*
G01*
X133860000Y-78130000D01*
X134200000Y-77660000D01*
X134540000Y-78130000D01*
G37*
%TO.C,R12*%
X124870000Y-67653641D02*
X124870000Y-67346359D01*
X125630000Y-67653641D02*
X125630000Y-67346359D01*
%TO.C,F1*%
X132732420Y-90473019D02*
X133186548Y-90473019D01*
X132732420Y-91943019D02*
X133186548Y-91943019D01*
%TO.C,C4*%
X129761252Y-87765000D02*
X129238748Y-87765000D01*
X129761252Y-89235000D02*
X129238748Y-89235000D01*
%TO.C,R5*%
X133370000Y-67296359D02*
X133370000Y-67603641D01*
X134130000Y-67296359D02*
X134130000Y-67603641D01*
%TO.C,PAD1*%
X123260000Y-61000000D02*
G75*
G02*
X121460000Y-61000000I-900000J0D01*
G01*
X121460000Y-61000000D02*
G75*
G02*
X123260000Y-61000000I900000J0D01*
G01*
%TO.C,IC4*%
X121440000Y-68500000D02*
X121440000Y-67700000D01*
X121440000Y-68500000D02*
X121440000Y-69300000D01*
X124560000Y-68500000D02*
X124560000Y-67700000D01*
X124560000Y-68500000D02*
X124560000Y-69300000D01*
X121490000Y-69800000D02*
X121160000Y-70040000D01*
X121160000Y-69560000D01*
X121490000Y-69800000D01*
G36*
X121490000Y-69800000D02*
G01*
X121160000Y-70040000D01*
X121160000Y-69560000D01*
X121490000Y-69800000D01*
G37*
%TO.C,R10*%
X126120000Y-91403641D02*
X126120000Y-91096359D01*
X126880000Y-91403641D02*
X126880000Y-91096359D01*
%TO.C,PAD7*%
X128340000Y-61000000D02*
G75*
G02*
X126540000Y-61000000I-900000J0D01*
G01*
X126540000Y-61000000D02*
G75*
G02*
X128340000Y-61000000I900000J0D01*
G01*
%TO.C,C12*%
X137392164Y-72140000D02*
X137607836Y-72140000D01*
X137392164Y-72860000D02*
X137607836Y-72860000D01*
%TO.C,R2*%
X130370000Y-67296359D02*
X130370000Y-67603641D01*
X131130000Y-67296359D02*
X131130000Y-67603641D01*
%TO.C,R11*%
X127370000Y-91096359D02*
X127370000Y-91403641D01*
X128130000Y-91096359D02*
X128130000Y-91403641D01*
%TO.C,C10*%
X137392164Y-70890000D02*
X137607836Y-70890000D01*
X137392164Y-71610000D02*
X137607836Y-71610000D01*
%TO.C,C8*%
X137607836Y-67640000D02*
X137392164Y-67640000D01*
X137607836Y-68360000D02*
X137392164Y-68360000D01*
%TO.C,PAD5*%
X133420000Y-61000000D02*
G75*
G02*
X131620000Y-61000000I-900000J0D01*
G01*
X131620000Y-61000000D02*
G75*
G02*
X133420000Y-61000000I900000J0D01*
G01*
%TO.C,C7*%
X129761252Y-85515000D02*
X129238748Y-85515000D01*
X129761252Y-86985000D02*
X129238748Y-86985000D01*
D14*
%TO.C,G1*%
G36*
X122740185Y-58124715D02*
G01*
X122901217Y-58145043D01*
X122964583Y-58173597D01*
X122964621Y-58174346D01*
X122927102Y-58261932D01*
X122836379Y-58394724D01*
X122831984Y-58400342D01*
X122740309Y-58527846D01*
X122699481Y-58606301D01*
X122699347Y-58608241D01*
X122760260Y-58626998D01*
X122921412Y-58640882D01*
X123150426Y-58647342D01*
X123197854Y-58647519D01*
X123696360Y-58647519D01*
X123360298Y-59310705D01*
X120878353Y-59310705D01*
X121472454Y-58713838D01*
X122066556Y-58116971D01*
X122515589Y-58116971D01*
X122740185Y-58124715D01*
G37*
G36*
X124404938Y-56593115D02*
G01*
X124563605Y-56602362D01*
X124637493Y-56626641D01*
X124650530Y-56673204D01*
X124629754Y-56740861D01*
X124572314Y-56834024D01*
X124462700Y-56884346D01*
X124262416Y-56908537D01*
X124240304Y-56909904D01*
X124028484Y-56933162D01*
X123895423Y-56989195D01*
X123787359Y-57105233D01*
X123750188Y-57158146D01*
X123654110Y-57286026D01*
X123559114Y-57354384D01*
X123420339Y-57381842D01*
X123198812Y-57387014D01*
X122802977Y-57387467D01*
X123196736Y-56989556D01*
X123590496Y-56591645D01*
X124137562Y-56591645D01*
X124404938Y-56593115D01*
G37*
G36*
X128390022Y-56888541D02*
G01*
X128701175Y-57185437D01*
X128322177Y-57186974D01*
X128094153Y-57179425D01*
X127961152Y-57147276D01*
X127886284Y-57079781D01*
X127872193Y-57055875D01*
X127819473Y-56988143D01*
X127730543Y-56948067D01*
X127574611Y-56928748D01*
X127320885Y-56923289D01*
X127280088Y-56923237D01*
X126992217Y-56915695D01*
X126812467Y-56885864D01*
X126716821Y-56822937D01*
X126681260Y-56716107D01*
X126678460Y-56652539D01*
X126740213Y-56627606D01*
X126907261Y-56607611D01*
X127152287Y-56594930D01*
X127378665Y-56591645D01*
X128078870Y-56591645D01*
X128390022Y-56888541D01*
G37*
G36*
X130055111Y-58547305D02*
G01*
X130823368Y-59309231D01*
X128319843Y-59309968D01*
X125816319Y-59310705D01*
X125816319Y-58647519D01*
X127407964Y-58647519D01*
X127851578Y-58645358D01*
X128247596Y-58639288D01*
X128577893Y-58629926D01*
X128824348Y-58617893D01*
X128968837Y-58603806D01*
X128999608Y-58593178D01*
X128962607Y-58515989D01*
X128865747Y-58366606D01*
X128734334Y-58183290D01*
X128600409Y-58000872D01*
X128505054Y-57865424D01*
X128469060Y-57806560D01*
X128529415Y-57795519D01*
X128686645Y-57787856D01*
X128877957Y-57785378D01*
X129286854Y-57785378D01*
X130055111Y-58547305D01*
G37*
G36*
X129009735Y-50966623D02*
G01*
X129119784Y-50984181D01*
X129132245Y-50995274D01*
X129087568Y-51058479D01*
X128963595Y-51198711D01*
X128775410Y-51399807D01*
X128538101Y-51645602D01*
X128304539Y-51882106D01*
X127476833Y-52712010D01*
X127989526Y-52715429D01*
X128533395Y-52776751D01*
X129011472Y-52952714D01*
X129422517Y-53242842D01*
X129463838Y-53281950D01*
X129695953Y-53507833D01*
X128435901Y-53540992D01*
X128000000Y-53552887D01*
X127682103Y-53563613D01*
X127467619Y-53575189D01*
X127341952Y-53589633D01*
X127290509Y-53608965D01*
X127298697Y-53635201D01*
X127351922Y-53670361D01*
X127381539Y-53686821D01*
X127686800Y-53916154D01*
X127950017Y-54230729D01*
X128154819Y-54597620D01*
X128284837Y-54983900D01*
X128323703Y-55356644D01*
X128301696Y-55537688D01*
X128255797Y-55746665D01*
X126361247Y-53855495D01*
X126257652Y-54212212D01*
X126084779Y-54991314D01*
X126030467Y-55745745D01*
X126096054Y-56494806D01*
X126282874Y-57257795D01*
X126510752Y-57868277D01*
X126522541Y-57921952D01*
X126487990Y-57956007D01*
X126384928Y-57974829D01*
X126191182Y-57982804D01*
X125924155Y-57984334D01*
X125288297Y-57984334D01*
X125237295Y-57801958D01*
X125219541Y-57672190D01*
X125205214Y-57438672D01*
X125195435Y-57130272D01*
X125191326Y-56775859D01*
X125191536Y-56624804D01*
X125218365Y-55847548D01*
X125294269Y-55160162D01*
X125425569Y-54526961D01*
X125618585Y-53912258D01*
X125717126Y-53657049D01*
X125724335Y-53621134D01*
X125703342Y-53593480D01*
X125639375Y-53573015D01*
X125517662Y-53558667D01*
X125323428Y-53549364D01*
X125041902Y-53544032D01*
X124658310Y-53541599D01*
X124157880Y-53540994D01*
X124118483Y-53540992D01*
X122472776Y-53540992D01*
X122760650Y-53247670D01*
X123162888Y-52922588D01*
X123633393Y-52701747D01*
X124182641Y-52580866D01*
X124447133Y-52558480D01*
X125034344Y-52529328D01*
X124382059Y-51874585D01*
X123729773Y-51219843D01*
X124192759Y-51219895D01*
X124705093Y-51284495D01*
X125187601Y-51473472D01*
X125628280Y-51779768D01*
X126015126Y-52196325D01*
X126130570Y-52359265D01*
X126305625Y-52623792D01*
X126464731Y-52310722D01*
X126694243Y-51961738D01*
X127010195Y-51620399D01*
X127370696Y-51327876D01*
X127614832Y-51180444D01*
X127840436Y-51079661D01*
X128068919Y-51016936D01*
X128350797Y-50980810D01*
X128551958Y-50967867D01*
X128810494Y-50960714D01*
X129009735Y-50966623D01*
G37*
D13*
%TO.C,C6*%
X131390000Y-86142164D02*
X131390000Y-86357836D01*
X132110000Y-86142164D02*
X132110000Y-86357836D01*
%TO.C,R4*%
X132370000Y-67296359D02*
X132370000Y-67603641D01*
X133130000Y-67296359D02*
X133130000Y-67603641D01*
%TO.C,R8*%
X128620000Y-91403641D02*
X128620000Y-91096359D01*
X129380000Y-91403641D02*
X129380000Y-91096359D01*
%TO.C,R9*%
X124870000Y-91403641D02*
X124870000Y-91096359D01*
X125630000Y-91403641D02*
X125630000Y-91096359D01*
%TO.C,R6*%
X123153641Y-78620000D02*
X122846359Y-78620000D01*
X123153641Y-79380000D02*
X122846359Y-79380000D01*
%TO.C,D3*%
X125350000Y-88810000D02*
X126650000Y-88810000D01*
X126650000Y-85690000D02*
X125380000Y-85690000D01*
X125000000Y-85740000D02*
X124760000Y-85410000D01*
X125240000Y-85410000D01*
X125000000Y-85740000D01*
G36*
X125000000Y-85740000D02*
G01*
X124760000Y-85410000D01*
X125240000Y-85410000D01*
X125000000Y-85740000D01*
G37*
%TD*%
M02*
